<svg width="350" height="371" viewBox="0 0 350 371" fill="none" xmlns="http://www.w3.org/2000/svg">
    <g clip-path="url(#clip0_1496_5696)">
        <path d="M349.401 174.7C349.401 166.33 344.191 158.85 336.341 155.94L287.831 137.99C289.531 134.32 290.491 130.24 290.491 125.94C290.491 123.03 290.491 114.17 277.441 97.64C274.981 94.52 271.681 92.26 267.991 91.04C265.591 84.05 260.841 76.04 253.761 67.08C249.971 62.28 244.181 59.48 238.061 59.48C231.941 59.48 226.161 62.28 222.361 67.08C220.271 69.73 218.391 72.29 216.701 74.78C215.351 71.87 214.111 68.89 212.981 65.86L193.441 13.07C190.541 5.22001 183.051 0.0100098 174.681 0.0100098C166.311 0.0100098 158.831 5.22001 155.921 13.07L136.381 65.86C124.271 98.59 98.5507 124.31 65.8207 136.42L13.0307 155.96C5.1807 158.86 -0.0292969 166.35 -0.0292969 174.72C-0.0292969 181.82 3.7207 188.27 9.6407 191.85C3.8607 202.86 0.760703 215.22 0.760703 228.02C0.760703 239.07 9.7107 248.02 20.7607 248.02H28.5307C39.5807 248.02 48.5307 239.07 48.5307 228.02C48.5307 221.04 50.9407 214.4 55.2207 209.09L65.8307 213.02C98.5607 225.13 124.281 250.85 136.391 283.58L138.071 288.13V323.2C129.151 325.21 122.481 333.18 122.481 342.71V350.48C122.481 361.53 131.431 370.48 142.481 370.48H165.841C169.011 370.48 172.011 369.74 174.671 368.43C177.341 369.74 180.331 370.48 183.501 370.48H206.861C217.911 370.48 226.861 361.53 226.861 350.48V342.71C226.861 333.18 220.201 325.21 211.271 323.2V288.14L212.951 283.59C225.061 250.86 250.781 225.14 283.511 213.03L294.121 209.1C298.401 214.4 300.801 221.05 300.801 228.03C300.801 239.08 309.751 248.03 320.801 248.03H328.571C339.621 248.03 348.571 239.08 348.571 228.03C348.571 215.23 345.471 202.87 339.691 191.86C345.611 188.29 349.361 181.83 349.361 174.73L349.401 174.7Z" fill="white"/>
        <path d="M270.609 175.82C300.499 175.82 324.729 200.05 324.729 229.94" stroke="#1E1E1E" stroke-width="7.77" stroke-miterlimit="10"/>
        <path d="M24.6699 229.94C24.6699 200.05 48.8999 175.82 78.7899 175.82" stroke="#1E1E1E" stroke-width="7.77" stroke-miterlimit="10"/>
        <path d="M187.42 287.99V348.51H206.9" stroke="#1E1E1E" stroke-width="7.77" stroke-miterlimit="10"/>
        <path d="M161.98 287.99V348.51H142.51" stroke="#1E1E1E" stroke-width="7.77" stroke-miterlimit="10"/>
        <path d="M174.7 21.9399L194.24 74.7299C208.36 112.89 238.45 142.98 276.61 157.1L329.4 176.64L276.61 196.18C238.45 210.3 208.36 240.39 194.24 278.55L174.7 331.34L155.16 278.55C141.04 240.39 110.95 210.3 72.79 196.18L20 176.64L72.79 157.1C110.95 142.98 141.04 112.89 155.16 74.7299L174.7 21.9399Z" fill="#FFC86B"/>
        <mask id="mask0_1496_5696" style="mask-type:luminance" maskUnits="userSpaceOnUse" x="20" y="21" width="310" height="311">
            <path d="M174.7 21.9399L194.24 74.7299C208.36 112.89 238.45 142.98 276.61 157.1L329.4 176.64L276.61 196.18C238.45 210.3 208.36 240.39 194.24 278.55L174.7 331.34L155.16 278.55C141.04 240.39 110.95 210.3 72.79 196.18L20 176.64L72.79 157.1C110.95 142.98 141.04 112.89 155.16 74.7299L174.7 21.9399Z" fill="white"/>
        </mask>
        <g mask="url(#mask0_1496_5696)">
            <path d="M234.591 100.67H115.961V115.59H234.591V100.67Z" fill="#A99CFF"/>
            <path d="M234.591 115.04H115.961V129.96H234.591V115.04Z" fill="#8CDEC0"/>
        </g>
        <path d="M164.51 160.61C164.51 181.6 147.49 198.62 126.5 198.62C105.51 198.62 88.4902 181.6 88.4902 160.61H164.51Z" fill="white"/>
        <path d="M145.16 160.61C145.16 170.92 136.8 179.27 126.5 179.27C116.2 179.27 107.84 170.91 107.84 160.61H145.16Z" fill="#1E1E1E"/>
        <path d="M261.34 160.61C261.34 181.6 244.32 198.62 223.33 198.62C202.34 198.62 185.32 181.6 185.32 160.61H261.34Z" fill="white"/>
        <path d="M241.99 160.61C241.99 170.92 233.63 179.27 223.33 179.27C213.03 179.27 204.67 170.91 204.67 160.61H241.99Z" fill="#1E1E1E"/>
        <path d="M209.96 206.04C199.66 213.22 187.13 217.43 173.61 217.43C160.09 217.43 147.57 213.22 137.27 206.04H209.96Z" fill="#1E1E1E"/>
        <path d="M249.841 102.83C249.841 96.3299 238.071 81.4199 238.071 81.4199C238.071 81.4199 226.301 96.3299 226.301 102.83C226.301 109.33 231.571 114.6 238.071 114.6C244.571 114.6 249.841 109.33 249.841 102.83Z" fill="#AECBFF"/>
        <path d="M270.49 127.88C270.49 123.05 261.74 111.98 261.74 111.98C261.74 111.98 252.99 123.05 252.99 127.88C252.99 132.71 256.91 136.63 261.74 136.63C266.57 136.63 270.49 132.71 270.49 127.88Z" fill="#AECBFF"/>
    </g>
    <defs>
        <clipPath id="clip0_1496_5696">
            <rect width="349.4" height="370.45" fill="white"/>
        </clipPath>
    </defs>
</svg>
