<svg width="348" height="309" viewBox="0 0 348 309" fill="none" xmlns="http://www.w3.org/2000/svg">
    <g clip-path="url(#clip0_1496_5697)">
        <path d="M330.36 36.38C329.46 31.46 327.7 26.63 325.08 22.1C317.09 8.26 302.78 0 286.8 0H61.03C45.05 0 30.74 8.26 22.75 22.1C20.13 26.64 18.37 31.46 17.47 36.38C7.62 37.62 0 46.03 0 56.22C0 75.95 7.41 94.79 20.86 109.27C31.68 120.92 45.61 128.88 60.86 132.31L135.37 261.37C127.43 264.02 121.71 271.51 121.71 280.34V288.11C121.71 299.16 130.66 308.11 141.71 308.11H165.07C168.24 308.11 171.24 307.37 173.9 306.06C176.56 307.37 179.56 308.11 182.73 308.11H206.09C217.14 308.11 226.09 299.16 226.09 288.11V280.34C226.09 271.51 220.37 264.02 212.43 261.37L286.94 132.31C302.2 128.88 316.12 120.91 326.94 109.27C340.39 94.79 347.8 75.95 347.8 56.22C347.8 46.03 340.18 37.62 330.33 36.38H330.36Z" fill="white"/>
        <path d="M152.961 253.76L40.0714 58.25C30.7514 42.12 42.4014 21.95 61.0314 21.95H286.791C305.421 21.95 317.061 42.12 307.751 58.25L194.871 253.77C185.551 269.9 162.271 269.9 152.951 253.77L152.961 253.76Z" fill="#F2B6FF"/>
        <mask id="mask0_1496_5697" style="mask-type:luminance" maskUnits="userSpaceOnUse" x="36" y="21" width="276" height="245">
            <path d="M152.961 253.76L40.0714 58.25C30.7514 42.12 42.4014 21.95 61.0314 21.95H286.791C305.421 21.95 317.061 42.12 307.751 58.25L194.871 253.77C185.551 269.9 162.271 269.9 152.951 253.77L152.961 253.76Z" fill="white"/>
        </mask>
        <g mask="url(#mask0_1496_5697)">
            <path d="M174.647 159.511L64.5391 115.359L58.9862 129.207L169.094 173.359L174.647 159.511Z" fill="#AECBFF"/>
            <path d="M169.309 172.846L59.2012 128.694L53.6483 142.542L163.756 186.694L169.309 172.846Z" fill="white"/>
            <path d="M178.726 173.365L288.834 129.214L283.281 115.366L173.173 159.517L178.726 173.365Z" fill="#AECBFF"/>
            <path d="M184.07 186.704L294.178 142.552L288.625 128.704L178.517 172.856L184.07 186.704Z" fill="white"/>
        </g>
        <path d="M163.51 71.6599C163.51 92.6499 146.49 109.67 125.5 109.67C104.51 109.67 87.4902 92.6499 87.4902 71.6599H163.51Z" fill="white"/>
        <path d="M144.16 71.6599C144.16 81.9699 135.8 90.3199 125.5 90.3199C115.2 90.3199 106.84 81.9599 106.84 71.6599H144.16Z" fill="#1E1E1E"/>
        <path d="M260.34 71.6599C260.34 92.6499 243.32 109.67 222.33 109.67C201.34 109.67 184.32 92.6499 184.32 71.6599H260.34Z" fill="white"/>
        <path d="M240.99 71.6599C240.99 81.9699 232.63 90.3199 222.33 90.3199C212.03 90.3199 203.67 81.9599 203.67 71.6599H240.99Z" fill="#1E1E1E"/>
        <path d="M151.131 113.87H196.701" stroke="#1E1E1E" stroke-width="7.77" stroke-miterlimit="10"/>
        <path d="M78.0106 112.29C48.1206 112.29 23.8906 88.0599 23.8906 58.1699" stroke="#1E1E1E" stroke-width="7.77" stroke-miterlimit="10"/>
        <path d="M323.94 58.1699C323.94 88.0599 299.71 112.29 269.82 112.29" stroke="#1E1E1E" stroke-width="7.77" stroke-miterlimit="10"/>
        <path d="M186.641 205.67V286.18H206.111" stroke="#1E1E1E" stroke-width="7.77" stroke-miterlimit="10"/>
        <path d="M161.191 205.67V286.18H141.721" stroke="#1E1E1E" stroke-width="7.77" stroke-miterlimit="10"/>
        <path d="M173.911 199.05C191.048 199.05 204.941 185.157 204.941 168.02C204.941 150.883 191.048 136.99 173.911 136.99C156.773 136.99 142.881 150.883 142.881 168.02C142.881 185.157 156.773 199.05 173.911 199.05Z" fill="#FFC86B"/>
        <path d="M172.8 160.48L168.72 164.8L165.58 161.82L173.43 153.74H177.35V182.31H172.8V160.49V160.48Z" fill="black"/>
    </g>
    <defs>
        <clipPath id="clip0_1496_5697">
            <rect width="347.83" height="308.12" fill="white"/>
        </clipPath>
    </defs>
</svg>
