<svg width="351" height="354" viewBox="0 0 351 354" fill="none" xmlns="http://www.w3.org/2000/svg">
    <g clip-path="url(#clip0_1496_5695)">
        <path d="M342.42 212.84C346.37 207.88 348.73 201.59 348.73 194.77V143.83C348.73 131.27 340.73 120.55 329.55 116.49C326.07 109.83 320.42 104.49 313.53 101.42C305.35 74.72 289.36 50.7 267.63 32.76C242.04 11.63 209.65 0 176.42 0C143.19 0 110.79 11.63 85.2 32.76C63.9 50.35 48.11 73.79 39.79 99.86C31.04 102.4 23.76 108.44 19.58 116.36C8.2 120.3 0 131.13 0 143.84V194.78C0 202.94 3.38 210.33 8.82 215.61C4.35 225.57 1.99 236.42 1.99 247.48C1.99 258.54 10.94 267.48 21.99 267.48H29.76C40.81 267.48 49.76 258.53 49.76 247.48C49.76 244.95 50.07 242.47 50.68 240.07H51.82V267.37C51.82 285.75 66.77 300.7 85.15 300.7H89.74V305.91C80.82 307.92 74.15 315.89 74.15 325.42V333.19C74.15 344.24 83.1 353.19 94.15 353.19H117.51C128.56 353.19 137.51 344.24 137.51 333.19V300.7H214.99V333.19C214.99 344.24 223.94 353.19 234.99 353.19H258.35C269.4 353.19 278.35 344.24 278.35 333.19V325.42C278.35 315.89 271.69 307.92 262.76 305.91V300.7H267.35C285.73 300.7 300.68 285.75 300.68 267.37V240.06C301.05 240.06 301.42 240.04 301.8 240.02C302.42 242.44 302.74 244.95 302.74 247.48C302.74 258.53 311.69 267.48 322.74 267.48H330.51C341.56 267.48 350.51 258.53 350.51 247.48C350.51 235.26 347.72 223.48 342.43 212.85L342.42 212.84Z" fill="white"/>
        <path d="M273.379 195.3C303.269 195.3 327.499 219.53 327.499 249.42" stroke="#1E1E1E" stroke-width="7.77" stroke-miterlimit="10"/>
        <path d="M26.7598 249.42C26.7598 219.53 50.9898 195.3 80.8798 195.3" stroke="#1E1E1E" stroke-width="7.77" stroke-miterlimit="10"/>
        <path d="M177.301 21.9399C109.171 21.9399 53.9414 77.1699 53.9414 145.3H72.6914C72.6914 87.5199 119.531 40.6899 177.301 40.6899C235.071 40.6899 281.911 87.5299 281.911 145.3H300.661C300.661 77.1699 245.431 21.9399 177.301 21.9399Z" fill="#8CDEC0"/>
        <path d="M268.231 73.79H86.0312C78.6692 73.79 72.7012 79.7581 72.7012 87.12V269.32C72.7012 276.682 78.6692 282.65 86.0312 282.65H268.231C275.593 282.65 281.561 276.682 281.561 269.32V87.12C281.561 79.7581 275.593 73.79 268.231 73.79Z" fill="#A99CFF"/>
        <path d="M91.1621 170.4C91.1621 149.41 108.182 132.39 129.172 132.39C150.162 132.39 167.182 149.41 167.182 170.4H91.1621Z" fill="white"/>
        <path d="M119.492 170.4C119.492 160.09 127.852 151.74 138.152 151.74C148.452 151.74 156.812 160.1 156.812 170.4H119.492Z" fill="#1E1E1E"/>
        <path d="M223.563 185.32C223.563 206.31 206.543 223.33 185.553 223.33C164.563 223.33 147.543 206.31 147.543 185.32H223.563Z" fill="#1E1E1E"/>
        <path d="M186.832 170.4C186.832 149.41 203.852 132.39 224.842 132.39C245.832 132.39 262.852 149.41 262.852 170.4H186.832Z" fill="white"/>
        <path d="M215.162 170.4C215.162 160.09 223.522 151.74 233.822 151.74C244.122 151.74 252.482 160.1 252.482 170.4H215.162Z" fill="#1E1E1E"/>
        <path d="M191.503 185.32H182.303V199.21H191.503V185.32Z" fill="white"/>
        <path d="M205.391 185.32H196.191V199.21H205.391V185.32Z" fill="white"/>
        <path d="M68.9809 120.49H49.9609C42.5989 120.49 36.6309 126.458 36.6309 133.82V208.68C36.6309 216.042 42.5989 222.01 49.9609 222.01H68.9809C76.3428 222.01 82.3109 216.042 82.3109 208.68V133.82C82.3109 126.458 76.3428 120.49 68.9809 120.49Z" fill="#8CDEC0"/>
        <path d="M42.9106 136.71H29.9606C24.9514 136.71 20.8906 140.771 20.8906 145.78V196.72C20.8906 201.729 24.9514 205.79 29.9606 205.79H42.9106C47.9198 205.79 51.9806 201.729 51.9806 196.72V145.78C51.9806 140.771 47.9198 136.71 42.9106 136.71Z" fill="#F2B6FF"/>
        <path d="M281.851 222.01H300.871C308.233 222.01 314.201 216.042 314.201 208.68V133.82C314.201 126.458 308.233 120.49 300.871 120.49H281.851C274.489 120.49 268.521 126.458 268.521 133.82V208.68C268.521 216.042 274.489 222.01 281.851 222.01Z" fill="#8CDEC0"/>
        <path d="M307.601 205.79H320.551C325.56 205.79 329.621 201.729 329.621 196.72V145.78C329.621 140.771 325.56 136.71 320.551 136.71H307.601C302.592 136.71 298.531 140.771 298.531 145.78V196.72C298.531 201.729 302.592 205.79 307.601 205.79Z" fill="#F2B6FF"/>
        <path d="M239.762 270.73V331.25H259.232" stroke="#1E1E1E" stroke-width="7.77" stroke-miterlimit="10"/>
        <path d="M114.501 270.73V331.25H95.0312" stroke="#1E1E1E" stroke-width="7.77" stroke-miterlimit="10"/>
    </g>
    <defs>
        <clipPath id="clip0_1496_5695">
            <rect width="350.5" height="353.19" fill="white"/>
        </clipPath>
    </defs>
</svg>
