<svg width="512" height="165" viewBox="0 0 512 165" fill="none" xmlns="http://www.w3.org/2000/svg">
    <g clip-path="url(#clip0_1496_5699)">
        <path d="M433.33 0H77.85C34.8546 0 0 34.8546 0 77.85V86.31C0 129.305 34.8546 164.16 77.85 164.16H433.33C476.325 164.16 511.18 129.305 511.18 86.31V77.85C511.18 34.8546 476.325 0 433.33 0Z" fill="white"/>
        <path d="M107.936 75.2651C109.217 72.173 107.749 68.6281 104.657 67.3473C101.565 66.0666 98.0198 67.5349 96.739 70.627C95.4582 73.7191 96.9265 77.264 100.019 78.5448C103.111 79.8256 106.656 78.3572 107.936 75.2651Z" fill="black"/>
        <path d="M155.061 75.2627C156.342 72.1706 154.874 68.6257 151.782 67.3449C148.69 66.0641 145.145 67.5325 143.864 70.6245C142.583 73.7166 144.052 77.2615 147.144 78.5423C150.236 79.8231 153.781 78.3548 155.061 75.2627Z" fill="black"/>
        <path d="M143.3 83.9799H143.29V84.0499C141.66 92.1799 134.49 98.2899 125.89 98.2899C119.49 98.2899 113.88 94.8999 110.76 89.8299C109.67 88.0599 108.88 86.0899 108.47 83.9799H96.3603C97.4403 93.4199 102.95 101.51 110.75 106.13C115.18 108.76 120.35 110.27 125.88 110.27C132.38 110.27 138.39 108.19 143.28 104.64V120.77H108.41C89.7703 120.77 74.6503 105.66 74.6503 87.0099V57.8599C74.6503 54.7499 77.1703 52.2299 80.2803 52.2299H143.19C150 52.2299 155.52 46.7099 155.52 39.8999C155.46 33.1399 149.96 27.6899 143.19 27.6899L143.21 34.2599C143.21 37.3699 140.7 39.8999 137.58 39.8999H73.5703C67.3603 39.8999 62.3203 44.9399 62.3203 51.1499V91.8399C62.3203 114.63 80.7903 133.1 103.58 133.1H144.37C150.58 133.1 155.62 128.06 155.62 121.85V83.9699H143.3V83.9799Z" fill="black"/>
        <path d="M188.65 99.58H197.18C197.18 105.05 200.88 108.92 206.36 108.92C211.84 108.92 215.54 104.73 215.54 99.26V96.36C213.61 98.61 209.75 100.06 205.56 100.06C195.42 100.06 188.34 92.98 188.34 82.51C188.34 72.85 196.71 64.96 206.37 64.96C216.83 64.96 224.4 72.04 224.4 82.51V99.25C224.4 109.71 216.03 116.8 206.37 116.8C195.75 116.8 188.66 110.2 188.66 99.57L188.65 99.58ZM215.37 82.51C215.37 77.2 211.67 73.33 206.36 73.33C201.05 73.33 197.35 77.19 197.35 82.51C197.35 87.83 201.21 91.69 206.36 91.69C211.51 91.69 215.37 87.67 215.37 82.51Z" fill="black"/>
        <path d="M241.44 99.2599L227.76 65.7799H236.78L245.96 89.1199L254.81 65.7799H263.82L243.21 116.01H234.52L241.44 99.2699V99.2599Z" fill="black"/>
        <path d="M267.199 82.51C267.199 72.05 276.209 64.96 285.389 64.96C291.189 64.96 295.849 67.05 299.069 70.59C302.449 67.05 307.439 64.96 312.429 64.96C322.889 64.96 330.299 72.04 330.299 82.51V99.25H321.279V82.51C321.279 77.2 317.419 73.33 312.269 73.33C307.119 73.33 303.259 77.19 303.259 82.51V99.25H294.249V82.51C294.249 77.2 290.549 73.33 285.239 73.33C279.929 73.33 276.219 77.19 276.219 82.51V99.25H267.209V82.51H267.199Z" fill="black"/>
        <path d="M338.99 82.51C338.99 72.05 348 64.96 357.18 64.96C362.98 64.96 367.64 67.05 370.86 70.59C374.24 67.05 379.23 64.96 384.22 64.96C394.68 64.96 402.09 72.04 402.09 82.51V99.25H393.08V82.51C393.08 77.2 389.22 73.33 384.06 73.33C378.9 73.33 375.05 77.19 375.05 82.51V99.25H366.04V82.51C366.04 77.2 362.34 73.33 357.02 73.33C351.7 73.33 348.01 77.19 348.01 82.51V99.25H339V82.51H338.99Z" fill="black"/>
        <path d="M409.17 82.51C409.17 72.85 417.54 64.96 427.2 64.96C437.66 64.96 444.59 71.56 445.23 82.51V85.57H418.02C419.15 89.59 422.69 92.33 427.2 92.33C430.1 92.33 431.71 91.53 434.12 89.27L439.59 94.9C436.37 98.12 432.02 100.05 427.19 100.05C416.73 100.05 409.16 92.97 409.16 82.5L409.17 82.51ZM436.38 78.65C435.09 74.79 431.87 72.21 427.2 72.21C422.53 72.21 419.47 74.95 418.19 78.65H436.38Z" fill="black"/>
    </g>
    <defs>
        <clipPath id="clip0_1496_5699">
            <rect width="511.18" height="164.16" fill="white"/>
        </clipPath>
    </defs>
</svg>
