<svg width="417" height="348" viewBox="0 0 417 348" fill="none" xmlns="http://www.w3.org/2000/svg">
    <g clip-path="url(#clip0_1496_5698)">
        <path d="M414.75 159.04L411.51 150.75C409.52 145.66 405.68 141.85 401.05 139.78C399.16 138.2 397.04 136.87 394.72 135.86C391.41 134.41 387.91 133.68 384.41 133.66C376.75 126.48 367.76 120.94 357.92 117.35C349.81 86.33 332.22 58.27 307.55 37.31C279.22 13.25 243.12 0 205.9 0C168.68 0 132.28 13.36 103.89 37.62C78.9298 58.95 61.2898 87.55 53.4298 119.1C45.2898 122.66 37.7798 127.59 31.2798 133.67C27.9198 133.74 24.5798 134.47 21.4098 135.86C19.0898 136.88 16.9598 138.2 15.0798 139.78C10.4598 141.85 6.60982 145.66 4.61982 150.75L1.37982 159.04C-0.620185 164.15 -0.370185 169.58 1.63982 174.25C2.21982 178.71 3.94982 182.95 6.62982 186.54C6.55982 187.9 6.51982 189.26 6.51982 190.61C6.51982 201.66 15.4698 210.61 26.5198 210.61H34.2898C42.1098 210.61 48.8798 206.12 52.1698 199.58C52.8898 199.23 53.5898 198.85 54.2698 198.44C63.3098 231.72 83.1298 261.23 110.89 282.28C110.18 284.34 109.79 286.55 109.79 288.85V297.75C109.79 300.82 110.48 303.72 111.71 306.32C108.25 309.92 106.12 314.8 106.12 320.19V327.96C106.12 339.01 115.07 347.96 126.12 347.96H149.48C160.53 347.96 169.48 339.01 169.48 327.96V321.64C172.69 318.95 175.25 315.49 176.87 311.56C186.39 313.34 196.09 314.24 205.9 314.24C217.21 314.24 228.35 313.05 239.24 310.69C240.83 314.99 243.52 318.75 246.97 321.64V327.96C246.97 339.01 255.92 347.96 266.97 347.96H290.33C301.38 347.96 310.33 339.01 310.33 327.96V320.19C310.33 314.8 308.2 309.92 304.74 306.32C305.97 303.72 306.66 300.82 306.66 297.75V288.85C306.66 285.49 305.83 282.32 304.37 279.54C319.16 267.62 331.77 253.07 341.44 236.63C348.93 223.89 354.55 210.17 358.17 195.92C358.31 195.98 358.44 196.05 358.58 196.11C360.05 197.34 361.65 198.4 363.34 199.27C366.57 205.98 373.43 210.61 381.37 210.61H389.14C400.19 210.61 409.14 201.66 409.14 190.61C409.14 189.44 409.11 188.28 409.06 187.11C412 183.4 413.88 178.94 414.49 174.24C416.5 169.57 416.75 164.14 414.75 159.03V159.04Z" fill="white"/>
        <path d="M270.85 265.51V326.02H290.33" stroke="#1E1E1E" stroke-width="7.77" stroke-miterlimit="10"/>
        <path d="M278.059 280.84H263.639C260.325 280.84 257.639 283.526 257.639 286.84V303.65C257.639 306.964 260.325 309.65 263.639 309.65H278.059C281.372 309.65 284.059 306.964 284.059 303.65V286.84C284.059 283.526 281.372 280.84 278.059 280.84Z" fill="#FCF8F4"/>
        <mask id="mask0_1496_5698" style="mask-type:luminance" maskUnits="userSpaceOnUse" x="257" y="280" width="28" height="30">
            <path d="M278.059 280.84H263.639C260.325 280.84 257.639 283.526 257.639 286.84V303.65C257.639 306.964 260.325 309.65 263.639 309.65H278.059C281.372 309.65 284.059 306.964 284.059 303.65V286.84C284.059 283.526 281.372 280.84 278.059 280.84Z" fill="white"/>
        </mask>
        <g mask="url(#mask0_1496_5698)">
            <path d="M286.659 290.8H255.049V299.7H286.659V290.8Z" fill="#F2B6FF"/>
        </g>
        <path d="M331.129 138.44C361.019 138.44 385.249 162.67 385.249 192.56" stroke="#1E1E1E" stroke-width="7.77" stroke-miterlimit="10"/>
        <path d="M205.899 296.18C281.629 296.18 343.019 234.789 343.019 159.06C343.019 83.3307 281.629 21.9399 205.899 21.9399C130.17 21.9399 68.7793 83.3307 68.7793 159.06C68.7793 234.789 130.17 296.18 205.899 296.18Z" fill="#AECBFF"/>
        <path d="M154.449 154.54C154.449 133.55 171.469 116.53 192.459 116.53C213.449 116.53 230.469 133.55 230.469 154.54H154.449Z" fill="#FCF8F4"/>
        <path d="M182.77 154.54C182.77 144.23 191.13 135.88 201.43 135.88C211.73 135.88 220.09 144.24 220.09 154.54H182.77Z" fill="#1E1E1E"/>
        <path d="M250.109 154.54C250.109 133.55 267.129 116.53 288.119 116.53C309.109 116.53 326.129 133.55 326.129 154.54H250.109Z" fill="#FCF8F4"/>
        <path d="M278.439 154.54C278.439 144.23 286.799 135.88 297.099 135.88C307.399 135.88 315.759 144.24 315.759 154.54H278.439Z" fill="#1E1E1E"/>
        <path d="M124.64 186.47C134.791 186.47 143.02 178.241 143.02 168.09C143.02 157.939 134.791 149.71 124.64 149.71C114.489 149.71 106.26 157.939 106.26 168.09C106.26 178.241 114.489 186.47 124.64 186.47Z" fill="#A99CFF"/>
        <path d="M151.489 201.86C156.382 201.86 160.349 197.893 160.349 193C160.349 188.107 156.382 184.14 151.489 184.14C146.596 184.14 142.629 188.107 142.629 193C142.629 197.893 146.596 201.86 151.489 201.86Z" fill="#A99CFF"/>
        <path d="M124.009 218.98C130.514 218.98 135.789 213.706 135.789 207.2C135.789 200.694 130.514 195.42 124.009 195.42C117.503 195.42 112.229 200.694 112.229 207.2C112.229 213.706 117.503 218.98 124.009 218.98Z" fill="#A99CFF"/>
        <path d="M274.659 161.85C274.659 175.72 263.419 186.96 249.549 186.96C235.679 186.96 224.439 175.72 224.439 161.85" stroke="#1E1E1E" stroke-width="7.77" stroke-miterlimit="10"/>
        <path d="M30.4102 192.56C30.4102 162.67 54.6402 138.44 84.5302 138.44" stroke="#1E1E1E" stroke-width="7.77" stroke-miterlimit="10"/>
        <path d="M145.599 265.51V326.02H126.119" stroke="#1E1E1E" stroke-width="7.77" stroke-miterlimit="10"/>
        <path d="M152.809 280.84H138.389C135.075 280.84 132.389 283.526 132.389 286.84V303.65C132.389 306.964 135.075 309.65 138.389 309.65H152.809C156.122 309.65 158.809 306.964 158.809 303.65V286.84C158.809 283.526 156.122 280.84 152.809 280.84Z" fill="#FCF8F4"/>
        <mask id="mask1_1496_5698" style="mask-type:luminance" maskUnits="userSpaceOnUse" x="132" y="280" width="27" height="30">
            <path d="M152.809 280.84H138.389C135.075 280.84 132.389 283.526 132.389 286.84V303.65C132.389 306.964 135.075 309.65 138.389 309.65H152.809C156.122 309.65 158.809 306.964 158.809 303.65V286.84C158.809 283.526 156.122 280.84 152.809 280.84Z" fill="white"/>
        </mask>
        <g mask="url(#mask1_1496_5698)">
            <path d="M161.399 290.8H129.789V299.7H161.399V290.8Z" fill="#F2B6FF"/>
        </g>
        <path d="M47.4392 161.294L34.0097 156.042C30.9236 154.835 27.4435 156.358 26.2365 159.444L21.8294 170.713C20.6224 173.799 22.1458 177.279 25.2319 178.486L38.6614 183.738C41.7475 184.945 45.2276 183.422 46.4346 180.336L50.8417 169.067C52.0487 165.981 50.5253 162.501 47.4392 161.294Z" fill="#FCF8F4"/>
        <mask id="mask2_1496_5698" style="mask-type:luminance" maskUnits="userSpaceOnUse" x="21" y="155" width="31" height="30">
            <path d="M47.4392 161.294L34.0097 156.042C30.9236 154.835 27.4435 156.358 26.2365 159.444L21.8294 170.713C20.6224 173.799 22.1458 177.279 25.2319 178.486L38.6614 183.738C41.7475 184.945 45.2276 183.422 46.4346 180.336L50.8417 169.067C52.0487 165.981 50.5253 162.501 47.4392 161.294Z" fill="white"/>
        </mask>
        <g mask="url(#mask2_1496_5698)">
            <path d="M52.6692 171.501L23.2305 159.987L19.9889 168.276L49.4276 179.789L52.6692 171.501Z" fill="#F2B6FF"/>
        </g>
        <path d="M377.451 183.758L390.881 178.505C393.967 177.298 395.49 173.818 394.283 170.732L389.876 159.463C388.669 156.377 385.189 154.854 382.103 156.061L368.674 161.313C365.587 162.52 364.064 166 365.271 169.086L369.678 180.355C370.885 183.441 374.365 184.965 377.451 183.758Z" fill="#FCF8F4"/>
        <mask id="mask3_1496_5698" style="mask-type:luminance" maskUnits="userSpaceOnUse" x="364" y="155" width="31" height="30">
            <path d="M377.451 183.758L390.881 178.505C393.967 177.298 395.49 173.818 394.283 170.732L389.876 159.463C388.669 156.377 385.189 154.854 382.103 156.061L368.674 161.313C365.587 162.52 364.064 166 365.271 169.086L369.678 180.355C370.885 183.441 374.365 184.965 377.451 183.758Z" fill="white"/>
        </mask>
        <g mask="url(#mask3_1496_5698)">
            <path d="M366.684 179.808L396.123 168.295L392.881 160.007L363.443 171.52L366.684 179.808Z" fill="#F2B6FF"/>
        </g>
    </g>
    <defs>
        <clipPath id="clip0_1496_5698">
            <rect width="416.13" height="347.96" fill="white"/>
        </clipPath>
    </defs>
</svg>
