<svg width="30" height="30" viewBox="0 0 30 30" fill="none" xmlns="http://www.w3.org/2000/svg">
<rect width="30" height="30" rx="15" fill="#6750FB"/>
<g clip-path="url(#clip0_4943_89130)">
<path d="M24.6641 19.0379C24.6641 19.4017 24.3512 19.6893 23.9641 19.6893C23.5855 19.6893 23.2814 19.4017 23.2814 19.0379C23.2814 14.2826 19.487 10.4136 14.8309 10.4136C10.1705 10.4136 6.38279 14.2826 6.38279 19.0379C6.38279 19.4017 6.07636 19.6893 5.69566 19.6893C5.31055 19.6893 5 19.4017 5 19.0379C5 13.5729 9.4111 9.1123 14.8309 9.1123C20.2463 9.1123 24.6641 13.5729 24.6641 19.0379Z" fill="white"/>
<path d="M11.855 13.4208C11.855 13.7448 11.9064 14.0562 12.0032 14.3468C10.3958 15.313 9.39912 17.0911 9.39912 19.042C9.39912 19.3997 9.08417 19.6855 8.70346 19.6855C8.31631 19.6855 8.00781 19.3997 8.00781 19.042C8.00781 16.4138 9.53411 14.0073 11.9037 12.9075C11.8707 13.0735 11.855 13.2454 11.855 13.4208ZM21.6664 19.042C21.6664 19.3997 21.3618 19.6855 20.979 19.6855C20.5983 19.6855 20.2707 19.3997 20.2707 19.042C20.2707 17.0913 19.2798 15.3133 17.668 14.347C17.7668 14.0536 17.8193 13.7386 17.8193 13.4106C17.8193 13.2403 17.8045 13.0737 17.7728 12.9129C20.1459 14.0149 21.6664 16.4179 21.6664 19.042Z" fill="white"/>
<path d="M14.8318 15.5107C15.9407 15.5107 16.8727 14.5894 16.8727 13.4106C16.8727 12.2614 15.9298 11.3572 14.8318 11.3572C13.7187 11.3572 12.791 12.2738 12.791 13.4189C12.791 14.5894 13.7166 15.5107 14.8318 15.5107ZM11.6114 19.7752H18.0415C18.6394 19.7752 19.0166 19.5035 19.0166 19.041C19.0166 17.8272 17.3844 16.1921 14.8318 16.1921C12.2684 16.1921 10.6406 17.8272 10.6406 19.041C10.6406 19.5035 11.009 19.7752 11.6114 19.7752Z" fill="white"/>
</g>
<defs>
<clipPath id="clip0_4943_89130">
<rect width="20" height="11" fill="white" transform="translate(5 9.1123)"/>
</clipPath>
</defs>
</svg>
