<svg width="25" height="25" viewBox="0 0 25 25" fill="none" xmlns="http://www.w3.org/2000/svg">
<path d="M11.495 24C10.0506 24 8.69238 23.7215 7.42026 23.1646C6.15476 22.6143 5.04165 21.8527 4.08093 20.8797C3.12021 19.9067 2.36488 18.7794 1.81496 17.4977C1.27165 16.2094 1 14.8337 1 13.3709C1 12.3442 1.14245 11.3477 1.42735 10.3815C1.71888 9.41518 2.13299 8.50929 2.66966 7.6638C3.21297 6.8183 3.86559 6.06675 4.62754 5.40914C4.96545 5.08705 5.31992 4.93606 5.69096 4.9562C6.062 4.97633 6.36346 5.12731 6.59536 5.40914C6.85376 5.71781 6.94983 6.04997 6.88358 6.40562C6.81732 6.76126 6.64174 7.08336 6.35684 7.3719C5.79366 7.86846 5.30667 8.42877 4.89588 9.05283C4.48509 9.67688 4.16706 10.3513 3.94179 11.076C3.72314 11.794 3.61382 12.559 3.61382 13.3709C3.61382 14.4714 3.8159 15.5048 4.22007 16.4711C4.63086 17.4306 5.19735 18.2795 5.91955 19.0176C6.64837 19.749 7.48651 20.3194 8.43398 20.7287C9.38807 21.1448 10.4084 21.3528 11.495 21.3528C12.5883 21.3528 13.6086 21.1448 14.5561 20.7287C15.5102 20.3194 16.3483 19.749 17.0705 19.0176C17.7927 18.2795 18.3592 17.4306 18.77 16.4711C19.1808 15.5048 19.3862 14.4714 19.3862 13.3709C19.3862 12.4583 19.2437 11.596 18.9588 10.7841C18.6805 9.96543 18.2896 9.22394 17.7861 8.55962C17.2825 7.88859 16.6862 7.31151 15.9972 6.82837C15.3147 6.34523 14.566 5.97951 13.7511 5.73123V6.79817C13.7511 7.05987 13.6881 7.25782 13.5622 7.39203C13.4363 7.52624 13.2773 7.58998 13.0852 7.58327C12.893 7.57656 12.7042 7.50275 12.5187 7.36183L9.21912 4.88574C9.0071 4.72469 8.90109 4.53009 8.90109 4.30194C8.90109 4.06708 9.0071 3.86913 9.21912 3.70808L12.5088 1.22192C12.7009 1.081 12.893 1.00719 13.0852 1.00048C13.2773 0.993769 13.4363 1.05752 13.5622 1.19172C13.6881 1.32593 13.7511 1.52724 13.7511 1.79565V2.99344C14.9238 3.24843 16.0104 3.69131 17.0109 4.32207C18.018 4.95284 18.8926 5.73123 19.6346 6.65725C20.3833 7.57656 20.9631 8.60659 21.3739 9.74734C21.7913 10.8881 22 12.0959 22 13.3709C22 14.8337 21.725 16.2094 21.1751 17.4977C20.6318 18.7794 19.8798 19.9067 18.9191 20.8797C17.9584 21.8527 16.8419 22.6143 15.5698 23.1646C14.3043 23.7215 12.946 24 11.495 24ZM10.4614 18.162C10.256 18.162 10.0672 18.1151 9.89494 18.0211C9.72929 17.9205 9.57028 17.7829 9.41789 17.6084L7.20161 14.9109C6.99621 14.6559 6.89352 14.3976 6.89352 14.1359C6.89352 13.8473 6.99621 13.599 7.20161 13.391C7.407 13.183 7.65215 13.079 7.93706 13.079C8.10932 13.079 8.26171 13.1159 8.39423 13.1897C8.53336 13.2568 8.66588 13.3709 8.79177 13.5319L10.4416 15.5954L14.0095 9.77754C14.2546 9.37492 14.5627 9.17361 14.9337 9.17361C15.212 9.17361 15.4605 9.26756 15.6791 9.45545C15.8978 9.63662 16.0071 9.87484 16.0071 10.1701C16.0071 10.2909 15.9839 10.415 15.9375 10.5425C15.8912 10.67 15.8282 10.7941 15.7487 10.9149L11.4752 17.5883C11.23 17.9708 10.8921 18.162 10.4614 18.162Z" fill="black"/>
</svg>
