<svg width="25" height="25" viewBox="0 0 25 25" fill="none" xmlns="http://www.w3.org/2000/svg">
<rect y="-0.000976562" width="25" height="25" rx="12.5" fill="#166CFF"/>
<g clip-path="url(#clip0_11495_39213)">
<path d="M5.0431 16.4675C5.6353 16.4675 6.0906 16.0203 6.0906 15.4513V10.5404C6.0906 9.96306 5.6353 9.51352 5.0431 9.51352C4.45734 9.51352 4 9.96306 4 10.5404V15.4513C4 16.0203 4.45734 16.4675 5.0431 16.4675ZM8.41873 17.9927C9.39967 17.9927 10.0693 17.3261 10.0693 16.3867V9.61137C10.0693 8.66769 9.39967 7.99902 8.41873 7.99902C7.44013 7.99902 6.77256 8.66769 6.77256 9.61137V16.3867C6.77256 17.3261 7.44013 17.9927 8.41873 17.9927ZM10.7929 14.3839H14.9133V11.6078H10.7929V14.3839ZM17.2854 17.9927C18.2705 17.9927 18.9381 17.3261 18.9381 16.3867V9.61137C18.9381 8.66769 18.2705 7.99902 17.2854 7.99902C16.3089 7.99902 15.6413 8.66769 15.6413 9.61137V16.3867C15.6413 17.3261 16.3089 17.9927 17.2854 17.9927ZM20.615 16.4675C21.2029 16.4675 21.6645 16.0203 21.6645 15.4513V10.5404C21.6645 9.96306 21.2029 9.51352 20.615 9.51352C20.0293 9.51352 19.574 9.96306 19.574 10.5404V15.4513C19.574 16.0203 20.0293 16.4675 20.615 16.4675Z" fill="white"/>
</g>
<defs>
<clipPath id="clip0_11495_39213">
<rect width="18" height="10" fill="white" transform="translate(4 7.99902)"/>
</clipPath>
</defs>
</svg>
