<svg width="26" height="25" viewBox="0 0 26 25" fill="none" xmlns="http://www.w3.org/2000/svg">
<path d="M14.7598 5.8715C16.0847 5.8715 17.1554 4.78212 17.1554 3.43405C17.1554 2.08599 16.0847 1 14.7598 1C13.4349 1 12.3676 2.08599 12.3676 3.43405C12.3676 4.78212 13.4349 5.8715 14.7598 5.8715ZM11.0478 15.353L15.0522 17.6436L12.483 19.8887C11.909 20.3809 11.8829 21.0659 12.264 21.4996C12.6555 21.9441 13.3222 22.0093 13.9239 21.4924L17.6073 18.2973C18.1419 17.8311 18.0555 16.8487 17.4163 16.4247L13.4491 13.7806L14.2261 11.0119C14.3207 10.6623 14.7137 10.6125 14.9205 10.9225L16.0971 12.6757C16.3889 13.1032 16.9302 13.2661 17.4063 13.0432L20.7937 11.5095C21.4224 11.2198 21.662 10.6478 21.3877 10.0613C21.1098 9.49222 20.5614 9.31574 19.9327 9.59861L17.2984 10.7828L15.4798 8.2302C14.4989 6.8536 13.2781 6.30431 11.3078 6.45323L7.55493 6.72257C6.93287 6.76849 6.49901 7.18529 6.40872 7.84288L5.90404 11.7111C5.80661 12.4214 6.16063 12.9228 6.79219 12.9934C7.42089 13.05 7.83053 12.6791 7.92414 11.9688L8.37371 8.8597L9.82792 8.75331C10.1321 8.72818 10.4096 8.93853 10.3079 9.30605L9.43733 12.4127C8.90888 14.3052 10.1254 14.8216 11.0478 15.353ZM3.89048 24.7267C4.32719 25.1073 4.97632 25.1194 5.52615 24.5779L8.98342 21.0921C9.28566 20.7879 9.35172 20.7106 9.52945 20.2503L10.9281 16.5667L10.5066 16.3313C9.69205 15.8815 9.11133 15.4179 8.71501 14.9256L7.48415 19.3601L3.90474 22.9846C3.32735 23.5582 3.40863 24.3032 3.89048 24.7267Z" fill="black" fill-opacity="0.85"/>
</svg>
