<svg width="37" height="36" viewBox="0 0 37 36" fill="none" xmlns="http://www.w3.org/2000/svg">
<path d="M4.83056 24.9477C5.86984 24.9477 6.66884 24.0527 6.66884 22.914V13.0861C6.66884 11.9306 5.86984 11.0309 4.83056 11.0309C3.80261 11.0309 3 11.9306 3 13.0861V22.914C3 24.0527 3.80261 24.9477 4.83056 24.9477ZM10.7545 28C12.476 28 13.6511 26.6659 13.6511 24.7859V11.2267C13.6511 9.33818 12.476 8 10.7545 8C9.03717 8 7.86565 9.33818 7.86565 11.2267V24.7859C7.86565 26.6659 9.03717 28 10.7545 28ZM14.921 20.7778H22.1521V15.2222H14.921V20.7778ZM26.3149 28C28.0436 28 29.2152 26.6659 29.2152 24.7859V11.2267C29.2152 9.33818 28.0436 8 26.3149 8C24.6012 8 23.4297 9.33818 23.4297 11.2267V24.7859C23.4297 26.6659 24.6012 28 26.3149 28ZM32.1581 24.9477C33.1898 24.9477 34 24.0527 34 22.914V13.0861C34 11.9306 33.1898 11.0309 32.1581 11.0309C31.1303 11.0309 30.3312 11.9306 30.3312 13.0861V22.914C30.3312 24.0527 31.1303 24.9477 32.1581 24.9477Z" fill="black"/>
</svg>
