<svg width="37" height="36" viewBox="0 0 37 36" fill="none" xmlns="http://www.w3.org/2000/svg">
<path d="M4.87568 29C3.61647 29 2.65182 28.6668 1.98172 28.0005C1.31161 27.3415 0.976562 26.3896 0.976562 25.1449V11.8551C0.976562 10.6104 1.31161 9.65847 1.98172 8.99948C2.65182 8.33316 3.61647 8 4.87568 8H27.0774C28.3367 8 29.3013 8.33316 29.9714 8.99948C30.6415 9.65847 30.9766 10.6104 30.9766 11.8551V25.1449C30.9766 26.3896 30.6415 27.3415 29.9714 28.0005C29.3013 28.6668 28.3367 29 27.0774 29H4.87568ZM5.18496 26.1663H26.7571C27.1989 26.1663 27.5377 26.0565 27.7733 25.8368C28.009 25.6172 28.1268 25.273 28.1268 24.8044V12.1956C28.1268 11.727 28.009 11.3828 27.7733 11.1632C27.5377 10.9435 27.1989 10.8337 26.7571 10.8337H5.18496C4.74313 10.8337 4.4044 10.9435 4.16876 11.1632C3.94048 11.3828 3.82634 11.727 3.82634 12.1956V24.8044C3.82634 25.273 3.94048 25.6172 4.16876 25.8368C4.4044 26.0565 4.74313 26.1663 5.18496 26.1663ZM0.976562 23.2448V21.3117H6.03547C6.38157 21.3117 6.55462 21.1323 6.55462 20.7735V16.2155C6.55462 15.8567 6.38157 15.6773 6.03547 15.6773H0.976562V13.7442H6.11279C6.85653 13.7442 7.43827 13.9529 7.85801 14.3703C8.2851 14.7877 8.49865 15.3661 8.49865 16.1056V20.8834C8.49865 21.6156 8.2851 22.194 7.85801 22.6187C7.43827 23.0361 6.85653 23.2448 6.11279 23.2448H0.976562ZM14.9935 26.6825V10.3175H16.9375V26.6825H14.9935ZM15.9434 23.5743C14.942 23.5743 14.0583 23.3619 13.2925 22.9372C12.5266 22.5126 11.9265 21.9195 11.492 21.158C11.0649 20.3891 10.8514 19.5031 10.8514 18.5C10.8514 17.4822 11.0649 16.5926 11.492 15.8311C11.9265 15.0622 12.5266 14.4655 13.2925 14.0408C14.0583 13.6161 14.942 13.4111 15.9434 13.4257C16.9523 13.4331 17.8396 13.6527 18.6054 14.0847C19.3713 14.5094 19.9714 15.1025 20.4059 15.864C20.8403 16.6255 21.0612 17.5042 21.0686 18.5C21.0833 19.5105 20.8735 20.3964 20.439 21.158C20.0119 21.9195 19.4118 22.5126 18.6386 22.9372C17.8654 23.3619 16.967 23.5743 15.9434 23.5743ZM15.9545 21.7291C16.6025 21.7291 17.1695 21.5936 17.6555 21.3227C18.1415 21.0518 18.5207 20.671 18.7932 20.1804C19.073 19.6899 19.2129 19.126 19.2129 18.489C19.2203 17.852 19.0878 17.2918 18.8153 16.8086C18.5428 16.318 18.1599 15.9409 17.6665 15.6773C17.1732 15.4064 16.6025 15.2709 15.9545 15.2709C15.3138 15.2709 14.7468 15.4064 14.2534 15.6773C13.7674 15.9409 13.3882 16.318 13.1157 16.8086C12.8433 17.2918 12.707 17.852 12.707 18.489C12.707 19.1334 12.8433 19.7008 13.1157 20.1914C13.3882 20.6747 13.7674 21.0518 14.2534 21.3227C14.7468 21.5936 15.3138 21.7291 15.9545 21.7291ZM30.9766 23.2448H25.8403C25.0966 23.2448 24.5112 23.0361 24.0841 22.6187C23.6643 22.194 23.4545 21.6156 23.4545 20.8834V16.1056C23.4545 15.3661 23.6643 14.7877 24.0841 14.3703C24.5112 13.9529 25.0966 13.7442 25.8403 13.7442H30.9766V15.6773H25.9177C25.5716 15.6773 25.3985 15.8567 25.3985 16.2155V20.7735C25.3985 21.1323 25.5716 21.3117 25.9177 21.3117H30.9766V23.2448Z" fill="black"/>
</svg>
