<svg width="45" height="45" viewBox="0 0 45 45" fill="#000000" xmlns="http://www.w3.org/2000/svg">
    <path d="M17.0387 21.8795C18.4643 21.8795 19.6199 20.7238 19.6199 19.2982C19.6199 17.8727 18.4643 16.717 17.0387 16.717C15.6132 16.717 14.4575 17.8727 14.4575 19.2982C14.4575 20.7238 15.6132 21.8795 17.0387 21.8795Z" fill="black"/>
    <path d="M37.1305 21.8795C38.5561 21.8795 39.7117 20.7238 39.7117 19.2982C39.7117 17.8727 38.5561 16.717 37.1305 16.717C35.705 16.717 34.5493 17.8727 34.5493 19.2982C34.5493 20.7238 35.705 21.8795 37.1305 21.8795Z" fill="black"/>
    <path d="M34.5138 24.0031V24.0317C33.8202 27.4995 30.76 30.1093 27.0919 30.1093C24.3606 30.1093 21.9724 28.665 20.6425 26.4985C20.1777 25.7477 19.8417 24.904 19.6701 24.0031H14.5077C14.9724 28.0286 17.3177 31.4821 20.6425 33.4484C22.5301 34.571 24.7395 35.2145 27.0919 35.2145C29.8662 35.2145 32.4259 34.3279 34.5138 32.8121V39.6905H19.6415C11.6905 39.6905 5.24821 33.2482 5.24821 25.2972V12.8703C5.24821 11.5475 6.32074 10.4678 7.65066 10.4678H34.478C37.381 10.4678 39.7405 8.11542 39.7405 5.20531C39.7119 2.3238 37.3667 0 34.4852 0V2.80286C34.4923 4.13279 33.4198 5.20531 32.0899 5.20531H4.79775C2.14505 5.20531 0 7.35036 0 10.0031V27.3565C0 37.0735 7.87947 44.953 17.5965 44.953H34.9857C37.6384 44.953 39.7834 42.808 39.7834 40.1553V24.0031H34.5281H34.5138Z" fill="black"/>
</svg>