<svg width="164" height="45" viewBox="0 0 164 45" fill="#000000" xmlns="http://www.w3.org/2000/svg">
	<path d="M17.0387 21.8795C18.4643 21.8795 19.6199 20.7238 19.6199 19.2982C19.6199 17.8727 18.4643 16.717 17.0387 16.717C15.6132 16.717 14.4575 17.8727 14.4575 19.2982C14.4575 20.7238 15.6132 21.8795 17.0387 21.8795Z" fill="white"/>
	<path d="M37.1305 21.8795C38.5561 21.8795 39.7117 20.7238 39.7117 19.2982C39.7117 17.8727 38.5561 16.717 37.1305 16.717C35.705 16.717 34.5493 17.8727 34.5493 19.2982C34.5493 20.7238 35.705 21.8795 37.1305 21.8795Z" fill="white"/>
	<path d="M34.5138 24.0031V24.0317C33.8202 27.4995 30.76 30.1093 27.0919 30.1093C24.3606 30.1093 21.9724 28.665 20.6425 26.4985C20.1777 25.7477 19.8417 24.904 19.6701 24.0031H14.5077C14.9724 28.0286 17.3177 31.4821 20.6425 33.4484C22.5301 34.571 24.7395 35.2145 27.0919 35.2145C29.8662 35.2145 32.4259 34.3279 34.5138 32.8121V39.6905H19.6415C11.6905 39.6905 5.24821 33.2482 5.24821 25.2972V12.8703C5.24821 11.5475 6.32074 10.4678 7.65066 10.4678H34.478C37.381 10.4678 39.7405 8.11542 39.7405 5.20531C39.7119 2.3238 37.3667 0 34.4852 0V2.80286C34.4923 4.13279 33.4198 5.20531 32.0899 5.20531H4.79775C2.14505 5.20531 0 7.35036 0 10.0031V27.3565C0 37.0735 7.87947 44.953 17.5965 44.953H34.9857C37.6384 44.953 39.7834 42.808 39.7834 40.1553V24.0031H34.5281H34.5138Z" fill="white"/>
	<path d="M61.3981 38.8982C56.8677 38.8982 53.8475 36.0839 53.8475 31.5536H57.4855C57.4855 33.8874 59.0642 35.5348 61.3981 35.5348C63.7319 35.5348 65.3106 33.7501 65.3106 31.4163V30.1807C64.4869 31.1417 62.8395 31.7595 61.0548 31.7595C56.7304 31.7595 53.7102 28.7393 53.7102 24.2776C53.7102 20.1591 57.2796 16.7957 61.3981 16.7957C65.8597 16.7957 69.0859 19.8159 69.0859 24.2776V31.4163C69.0859 35.878 65.5165 38.8982 61.3981 38.8982ZM61.3981 28.1901C63.6632 28.1901 65.242 26.4741 65.242 24.2776C65.242 22.0124 63.6632 20.365 61.3981 20.365C59.2015 20.365 57.5541 22.0124 57.5541 24.2776C57.5541 26.4741 59.2015 28.1901 61.3981 28.1901Z" fill="white"/>
	<path d="M73.4133 38.555L76.3648 31.4163L70.5303 17.1389H74.3742L78.2868 27.0919L82.0621 17.1389H85.906L77.1199 38.555H73.4133Z" fill="white"/>
	<path d="M87.3335 31.4163V24.2776C87.3335 19.8159 91.1775 16.7957 95.09 16.7957C97.5611 16.7957 99.5517 17.688 100.925 19.1981C102.366 17.688 104.494 16.7957 106.622 16.7957C111.083 16.7957 114.241 19.8159 114.241 24.2776V31.4163H110.397V24.2776C110.397 22.0124 108.75 20.365 106.553 20.365C104.288 20.365 102.709 22.0124 102.709 24.2776V31.4163H98.8653V24.2776C98.8653 22.0124 97.2865 20.365 95.0214 20.365C92.8249 20.365 91.1775 22.0124 91.1775 24.2776V31.4163H87.3335Z" fill="white"/>
	<path d="M117.967 31.4163V24.2776C117.967 19.8159 121.811 16.7957 125.724 16.7957C128.195 16.7957 130.186 17.688 131.558 19.1981C133 17.688 135.128 16.7957 137.256 16.7957C141.717 16.7957 144.875 19.8159 144.875 24.2776V31.4163H141.031V24.2776C141.031 22.0124 139.384 20.365 137.187 20.365C134.922 20.365 133.343 22.0124 133.343 24.2776V31.4163H129.499V24.2776C129.499 22.0124 127.92 20.365 125.655 20.365C123.459 20.365 121.811 22.0124 121.811 24.2776V31.4163H117.967Z" fill="white"/>
	<path d="M155.603 31.7595C151.141 31.7595 147.915 28.7393 147.915 24.2776C147.915 20.1591 151.484 16.7957 155.603 16.7957C160.065 16.7957 163.016 19.61 163.291 24.2776V25.5818H151.69C152.171 27.2978 153.681 28.4647 155.603 28.4647C156.838 28.4647 157.525 28.1215 158.554 27.1605L160.888 29.563C159.515 30.9358 157.662 31.7595 155.603 31.7595ZM151.759 22.6302H159.515C158.966 20.9828 157.593 19.8845 155.603 19.8845C153.681 19.8845 152.308 21.0514 151.759 22.6302Z" fill="white"/>
</svg>
