<svg width="24" height="24" viewBox="0 0 24 24" fill="none" xmlns="http://www.w3.org/2000/svg">
<path d="M4 19.4306C4 20.1809 4.21047 20.6249 4.8783 20.955C6.29897 21.5993 8.29032 22 10.5691 22C13.0502 22 15.7822 21.6189 17.5995 20.7703C18.6924 20.2713 19 19.7724 19 18.6448V6.72458C19 5.24732 18.2795 4.52833 16.8103 4.52833H16.0534V4.33189C16.0534 3.44003 15.507 3 14.6692 3C14.3696 3 14.0256 3.055 13.6451 3.1768C11.2248 3.92721 8.97031 4.46154 6.17754 4.46154H5.6109C4.5626 4.46154 4 5.01551 4 5.95844V19.4306ZM7.18132 10.9285V8.17432C7.18132 8.06039 7.27036 7.9661 7.38774 7.95824C9.2253 7.8718 10.901 7.64 12.6657 6.99173C12.7628 6.95245 12.9368 6.99173 12.9368 7.18425V10.0327C12.9368 10.1034 12.8964 10.1781 12.8195 10.2056C11.2814 10.8145 9.28601 11.1171 7.38774 11.121C7.27846 11.121 7.18132 11.0542 7.18132 10.9285ZM9.88908 20.0788C12.2528 19.9216 14.1754 19.3166 15.2884 18.4955C15.851 18.079 16.0574 17.6664 16.0574 16.8768V6.37098H16.7091C16.9721 6.37098 17.1017 6.50063 17.1017 6.77172V18.3659C17.1017 18.8177 17.0086 19.0455 16.5391 19.238C15.3127 19.7528 13.718 20.0828 12.1719 20.1339C11.419 20.1613 10.6743 20.1417 9.88908 20.0788Z" fill="black"/>
</svg>
