<svg width="24" height="24" viewBox="0 0 24 24" fill="none" xmlns="http://www.w3.org/2000/svg">
<path d="M21 12C21 16.9645 16.9697 21 11.9979 21C7.03456 21 3 16.9645 3 12C3 7.03125 7.03456 3 11.9979 3C16.9697 3 21 7.03125 21 12ZM10.5536 15.4773C10.5536 16.1293 11.0904 16.5597 11.7678 16.5597C12.4452 16.5597 12.965 16.1336 12.965 15.4773C12.965 14.8339 12.4495 14.3906 11.7678 14.3906C11.0862 14.3906 10.5536 14.8339 10.5536 15.4773ZM9.09231 8.8679C9.0284 9.03409 8.9858 9.19603 8.9858 9.38352C8.9858 9.86932 9.36923 10.2358 9.85492 10.2358C10.217 10.2358 10.494 10.0952 10.6985 9.83097L10.8007 9.6946C11.0862 9.26846 11.4312 9.08097 11.8615 9.08097C12.4239 9.08097 12.8286 9.44745 12.8286 9.91193C12.8286 10.4105 12.4537 10.6577 11.738 11.152C11.1117 11.5909 10.6686 12.0256 10.6686 12.7244C10.6686 12.7457 10.6686 12.767 10.6686 12.7884C10.6686 13.3722 11.0649 13.679 11.7721 13.679C12.3344 13.679 12.7307 13.3849 12.7988 12.9929C12.8031 12.9545 12.8073 12.9119 12.8116 12.8906C12.8883 12.4858 13.2462 12.1918 13.7489 11.8679C14.6691 11.2841 15.159 10.7812 15.159 9.78836C15.159 8.28836 13.7744 7.35085 12.0618 7.35085C10.5238 7.35085 9.43314 7.99858 9.09231 8.8679Z" fill="black"/>
</svg>
