<svg width="24" height="24" viewBox="0 0 24 24" fill="none" xmlns="http://www.w3.org/2000/svg">
<path d="M16.4004 19.2503C16.4004 19.6513 16.0676 20 15.6516 20H8.34834C7.9324 20 7.59964 19.6513 7.59964 19.2503C7.59964 18.8493 7.9324 18.5007 8.34834 18.5007H15.6516C16.0676 18.5007 16.4004 18.8493 16.4004 19.2503ZM21 7.15481V15.2719C21 16.6771 20.2409 17.4268 18.8579 17.4268H5.14211C3.76256 17.4268 3 16.6771 3 15.2719V7.15481C3 5.75314 3.76256 5 5.14211 5H18.8579C20.2409 5 21 5.75314 21 7.15481ZM9.49912 8.24964V14.1981C9.49912 14.6025 9.94972 14.7873 10.3033 14.5816L15.2392 11.6911C15.6135 11.4819 15.6031 10.9623 15.2357 10.7427L10.3033 7.84519C9.94972 7.63947 9.49912 7.83124 9.49912 8.24964Z" fill="black"/>
</svg>
