<svg width="26" height="26" viewBox="0 0 26 26" fill="none" xmlns="http://www.w3.org/2000/svg">
<path d="M9.19129 7.73043C10.222 7.73043 11.0545 6.89396 11.0545 5.86719C11.0545 4.83647 10.222 4 9.19129 4C8.16056 4 7.32409 4.83647 7.32409 5.86719C7.32409 6.89396 8.16056 7.73043 9.19129 7.73043ZM18.3885 7.7344C19.4153 7.7344 20.2478 6.89792 20.2478 5.87116C20.2478 4.84044 19.4153 4.00793 18.3885 4.00793C17.3578 4.00793 16.5213 4.84044 16.5213 5.87116C16.5213 6.89792 17.3578 7.7344 18.3885 7.7344ZM9.1794 15.4649C9.48068 15.4649 9.61548 15.6393 9.79387 16.226C10.0476 17.0387 10.9118 20.4837 11.1497 21.4946C11.2805 22.0258 11.5699 22.2716 12.006 22.2716C12.5769 22.2716 12.9257 21.7562 12.779 21.1854C12.7314 20.9713 11.5263 16.004 11.3677 14.9851C11.2052 13.9425 11.1972 11.6591 11.2052 11.0089C11.225 10.5292 11.4787 10.2399 11.9148 10.1606C12.3707 10.0813 13.1239 10.0416 13.8018 10.0496C14.4956 10.0496 15.2131 10.0813 15.677 10.1606C16.121 10.2438 16.3747 10.5292 16.3866 11.0089C16.3984 11.6591 16.3826 13.9425 16.2002 14.9772C16.0337 16.004 14.8484 20.9674 14.789 21.1854C14.6343 21.7483 14.9951 22.2716 15.562 22.2716C15.9941 22.2716 16.2835 22.0258 16.4261 21.4986C16.6998 20.4916 17.5322 17.0546 17.7978 16.2339C18.004 15.6353 18.111 15.4649 18.3885 15.4649C18.6898 15.4649 18.8246 15.6393 19.003 16.226C19.2567 17.0387 20.1249 20.4837 20.3628 21.4946C20.4936 22.0218 20.7909 22.2716 21.2191 22.2716C21.7899 22.2716 22.1388 21.7562 21.9881 21.1854C21.9326 20.9674 20.7434 16.004 20.5729 14.9851C20.4143 13.9425 20.4222 11.6591 20.4261 10.9534C20.4261 10.5174 20.6324 10.22 20.9851 10.1368C21.3697 10.0456 24.5055 9.71656 24.9535 9.56592C25.334 9.44302 25.5878 9.12192 25.5878 8.72945C25.5878 8.23786 25.2111 7.889 24.8187 7.889C24.676 7.889 24.5451 7.92072 24.4024 7.94847C23.1101 8.18236 20.3588 8.39644 18.3845 8.47969C16.7592 8.53122 14.9594 8.57483 13.8375 8.57483C12.6958 8.57483 10.8523 8.53122 9.18336 8.47969C7.24481 8.4123 4.45789 8.19822 3.16551 7.94847C3.0109 7.91279 2.88405 7.889 2.76908 7.889C2.35282 7.889 2 8.22994 2 8.72945C2 9.14174 2.25372 9.48266 2.63429 9.56988C3.09415 9.67295 6.20218 10.0654 6.59069 10.1368C6.93559 10.1962 7.15759 10.5094 7.17741 10.9534C7.18535 11.6591 7.16948 13.9425 6.99109 14.9772C6.82062 16.004 5.64321 20.9674 5.58375 21.1854C5.42121 21.7483 5.78197 22.2716 6.35283 22.2716C6.78098 22.2716 7.07037 22.0297 7.21705 21.4986C7.4906 20.4916 8.31914 17.0546 8.59267 16.2339C8.79486 15.6353 8.90189 15.4649 9.1794 15.4649Z" fill="black" fill-opacity="0.85"/>
</svg>
