<svg width="26" height="27" viewBox="0 0 26 27" fill="none" xmlns="http://www.w3.org/2000/svg">
<path fill-rule="evenodd" clip-rule="evenodd" d="M22.3018 4.96055C22.3018 6.96289 20.6809 8.59079 18.6747 8.59079C16.6827 8.59079 15.0548 6.96289 15.0548 4.96055C15.0548 4.56888 15.1177 4.1913 15.234 3.83739C15.1148 4.19043 15.0517 4.56849 15.0517 4.96065C15.0517 5.31492 15.1026 5.65747 15.1999 5.98041H8.8569C6.59096 5.98041 5.28467 6.9635 5.28467 8.57242C5.28467 10.2121 6.7066 11.2908 9.83709 11.6154L15.7828 12.2375C20.0636 12.6702 22.2987 14.653 22.2987 17.7013C22.2987 20.6879 20.0035 22.5747 16.5918 22.5747H16.1785V23.9002C16.1785 24.6774 15.5374 24.9699 14.9778 24.5292L11.812 22.0111C11.3769 21.6688 11.3699 21.1717 11.812 20.829L14.9708 18.3113C15.5374 17.8604 16.1785 18.156 16.1785 18.9469V20.29H16.5918C18.7044 20.29 20.014 19.3101 20.014 17.7013C20.014 16.0615 18.5851 14.9829 15.4583 14.6582L9.49857 14.0362C5.22479 13.6035 3 11.6207 3 8.57242C3 5.5857 5.29192 3.69575 8.8569 3.69575H15.2838C15.7992 2.32317 17.1271 1.34058 18.6747 1.34058C20.6809 1.34058 22.3018 2.96847 22.3018 4.96055ZM10.2535 21.2993C10.2535 23.3016 8.63257 24.9295 6.63023 24.9295C4.63116 24.9295 3.01026 23.3016 3.01026 21.2993C3.01026 19.3073 4.63116 17.6793 6.63023 17.6793C8.63257 17.6793 10.2535 19.3073 10.2535 21.2993ZM5.10382 21.2993C5.10382 22.1587 5.77771 22.836 6.63023 22.836C7.5 22.836 8.15991 22.162 8.15991 21.2993C8.15991 20.4299 7.49953 19.7729 6.63023 19.7729C5.77119 19.7729 5.10382 20.4332 5.10382 21.2993Z" fill="black" fill-opacity="0.85"/>
</svg>
