<svg width="26" height="26" viewBox="0 0 26 26" fill="none" xmlns="http://www.w3.org/2000/svg">
<path d="M2 10.8839C2 13.4298 2.83457 15.8116 4.40994 17.4761C4.95851 18.0527 5.64774 18.0012 6.04159 17.5229C6.41668 17.0822 6.29008 16.5337 5.88218 16.0789C4.68189 14.752 4.02548 12.9047 4.02548 10.8839C4.02548 8.87247 4.68189 7.02516 5.88218 5.69828C6.29008 5.24349 6.41668 4.69492 6.04159 4.2495C5.64774 3.77595 4.95851 3.72438 4.40994 4.29639C2.88615 5.90459 2 8.35204 2 10.8839ZM19.4745 17.5229C19.8683 18.0012 20.5575 18.0527 21.1061 17.4761C22.6862 15.8116 23.5161 13.4298 23.5161 10.8839C23.5161 8.35204 22.6346 5.90459 21.1061 4.29639C20.5575 3.72438 19.8683 3.77595 19.4745 4.2495C19.0994 4.69492 19.2307 5.24349 19.6339 5.69828C20.8341 7.02516 21.4953 8.87247 21.4953 10.8839C21.4953 12.9047 20.8341 14.752 19.6339 16.0789C19.2307 16.5337 19.0994 17.0822 19.4745 17.5229Z" fill="black" fill-opacity="0.85"/>
<path d="M6.13281 10.8839C6.13281 12.3467 6.57823 13.7252 7.39405 14.6582C7.88636 15.2115 8.62715 15.188 9.00693 14.7051C9.35388 14.2737 9.23668 13.7439 8.8944 13.2751C8.4443 12.6937 8.15829 11.7513 8.15829 10.8839C8.15829 10.0212 8.45836 9.09284 8.8944 8.4927C9.23198 8.01915 9.35388 7.4987 9.00693 7.06736C8.62715 6.58442 7.88636 6.5563 7.39405 7.11424C6.57823 8.04727 6.13281 9.42572 6.13281 10.8839ZM16.4946 14.7051C16.8744 15.188 17.6199 15.2115 18.1122 14.6582C18.9234 13.7252 19.3735 12.3467 19.3735 10.8839C19.3735 9.42572 18.9234 8.04727 18.1122 7.11424C17.6199 6.5563 16.8744 6.58442 16.4946 7.06736C16.1524 7.4987 16.2742 8.01915 16.6072 8.4927C17.0433 9.09284 17.348 10.0212 17.348 10.8839C17.348 11.7513 17.0573 12.6937 16.6072 13.2751C16.2696 13.7439 16.1524 14.2737 16.4946 14.7051Z" fill="black" fill-opacity="0.85"/>
<path d="M10.7266 10.8839C10.7266 11.6528 11.1485 12.3186 11.7862 12.6609V20.8144C11.7862 21.4614 12.1847 21.9115 12.7614 21.9115C13.3616 21.9115 13.7366 21.4802 13.7366 20.8144V12.6609C14.3649 12.3186 14.7915 11.6481 14.7915 10.8839C14.7915 9.75863 13.8867 8.84436 12.7614 8.84436C11.6315 8.84436 10.7266 9.75863 10.7266 10.8839Z" fill="black" fill-opacity="0.85"/>
</svg>
