<svg width="26" height="26" viewBox="0 0 26 26" fill="none" xmlns="http://www.w3.org/2000/svg">
<path d="M20.3333 6.38627V11.3228C20.0151 11.2619 19.6865 11.2336 19.3517 11.2336C19.0078 11.2336 18.6701 11.2636 18.3433 11.3272V9.01335C18.3433 8.26797 17.9562 7.90726 17.2405 7.90726H5.00852C4.2928 7.90726 3.91179 8.26797 3.91179 9.01335V17.1385C3.91179 17.89 4.2928 18.2475 5.00852 18.2475H13.5061C13.6333 18.9651 13.8948 19.6377 14.2662 20.2375H4.94934C2.97378 20.2375 1.92188 19.1977 1.92188 17.2344V6.38627C1.92188 4.42006 2.97378 3.38318 4.94934 3.38318H17.3119C19.2874 3.38318 20.3333 4.42616 20.3333 6.38627Z" fill="black" fill-opacity="0.85"/>
<path d="M7.49389 15.6548V16.1791C7.49389 16.5032 7.38708 16.6043 7.05687 16.6043H6.53859C6.20838 16.6043 6.10156 16.5032 6.10156 16.1791V15.6548C6.10156 15.3306 6.20838 15.2356 6.53859 15.2356H7.05687C7.38708 15.2356 7.49389 15.3306 7.49389 15.6548ZM10.3781 15.6548V16.1791C10.3781 16.5032 10.2714 16.6043 9.95011 16.6043H9.42283C9.10154 16.6043 8.98865 16.5032 8.98865 16.1791V15.6548C8.98865 15.3306 9.10154 15.2356 9.42283 15.2356H9.95011C10.2714 15.2356 10.3781 15.3306 10.3781 15.6548ZM13.2714 15.6548V16.1791C13.2714 16.5032 13.1557 16.6043 12.8344 16.6043H12.3071C11.9858 16.6043 11.8729 16.5032 11.8729 16.1791V15.6548C11.8729 15.3306 11.9858 15.2356 12.3071 15.2356H12.8344C13.1557 15.2356 13.2714 15.3306 13.2714 15.6548ZM7.49389 12.8124V13.3395C7.49389 13.6608 7.38708 13.7587 7.05687 13.7587H6.53859C6.20838 13.7587 6.10156 13.6608 6.10156 13.3395V12.8124C6.10156 12.4911 6.20838 12.3932 6.53859 12.3932H7.05687C7.38708 12.3932 7.49389 12.4911 7.49389 12.8124ZM10.3781 12.8124V13.3395C10.3781 13.6608 10.2714 13.7587 9.95011 13.7587H9.42283C9.10154 13.7587 8.98865 13.6608 8.98865 13.3395V12.8124C8.98865 12.4911 9.10154 12.3932 9.42283 12.3932H9.95011C10.2714 12.3932 10.3781 12.4911 10.3781 12.8124ZM13.2714 12.8124V13.3395C13.2714 13.6608 13.1557 13.7587 12.8344 13.7587H12.3071C11.9858 13.7587 11.8729 13.6608 11.8729 13.3395V12.8124C11.8729 12.4911 11.9858 12.3932 12.3071 12.3932H12.8344C13.1557 12.3932 13.2714 12.4911 13.2714 12.8124ZM10.3781 9.97273V10.4999C10.3781 10.8212 10.2714 10.9191 9.95011 10.9191H9.42283C9.10154 10.9191 8.98865 10.8212 8.98865 10.4999V9.97273C8.98865 9.65145 9.10154 9.54749 9.42283 9.54749H9.95011C10.2714 9.54749 10.3781 9.65145 10.3781 9.97273ZM13.2714 9.97273V10.4999C13.2714 10.8212 13.1557 10.9191 12.8344 10.9191H12.3071C11.9858 10.9191 11.8729 10.8212 11.8729 10.4999V9.97273C11.8729 9.65145 11.9858 9.54749 12.3071 9.54749H12.8344C13.1557 9.54749 13.2714 9.65145 13.2714 9.97273ZM16.1557 9.97273V10.4999C16.1557 10.8212 16.0428 10.9191 15.7215 10.9191H15.1942C14.8729 10.9191 14.7661 10.8212 14.7661 10.4999V9.97273C14.7661 9.65145 14.8729 9.54749 15.1942 9.54749H15.7215C16.0428 9.54749 16.1557 9.65145 16.1557 9.97273Z" fill="black" fill-opacity="0.85"/>
<path d="M23.9922 17.1763C23.9922 19.7172 21.8704 21.8236 19.3477 21.8236C16.8006 21.8236 14.7031 19.7295 14.7031 17.1763C14.7031 14.6382 16.8006 12.5347 19.3477 12.5347C21.8915 12.5347 23.9922 14.6321 23.9922 17.1763ZM20.7945 15.1402L18.7364 17.9815L17.7481 16.8867C17.6271 16.7544 17.45 16.6707 17.234 16.6707C16.8673 16.6707 16.5379 16.9347 16.5379 17.3672C16.5379 17.5378 16.6106 17.7214 16.7405 17.8659L18.225 19.4854C18.3696 19.6418 18.5943 19.7043 18.7799 19.7043C19.0133 19.7043 19.2319 19.6068 19.3529 19.4472L21.9333 15.9228C22.028 15.7924 22.0665 15.6417 22.0665 15.5207C22.0665 15.1369 21.7534 14.8303 21.37 14.8303C21.1337 14.8303 20.9241 14.9546 20.7945 15.1402Z" fill="black" fill-opacity="0.85"/>
</svg>
