<svg width="26" height="26" viewBox="0 0 26 26" fill="none" xmlns="http://www.w3.org/2000/svg">
<path d="M8.13706 14.9557C7.0754 15.8793 6.47143 17.053 6.47143 18.1289C6.47143 18.4962 6.55997 18.8365 6.72789 19.1287H2.07885C1.13623 19.1287 0.8125 18.7065 0.8125 17.9892C0.8125 16.323 2.72314 14.2664 5.51294 14.2664C6.51946 14.2664 7.41097 14.5335 8.13706 14.9557ZM7.77588 10.8354C7.77588 12.2192 6.75708 13.3142 5.51294 13.3142C4.27197 13.3142 3.25318 12.2192 3.25318 10.8418C3.25318 9.49927 4.28467 8.40747 5.51294 8.40747C6.74756 8.40747 7.77588 9.48657 7.77588 10.8354Z" fill="black" fill-opacity="0.85"/>
<path d="M24.98 17.9892C24.98 18.7065 24.653 19.1287 23.7136 19.1287H19.078C19.2455 18.8365 19.3337 18.4962 19.3337 18.1289C19.3337 17.0511 18.7284 15.8754 17.6641 14.9509C18.3884 14.5314 19.277 14.2664 20.2795 14.2664C23.0725 14.2664 24.98 16.323 24.98 17.9892ZM22.5456 10.8354C22.5456 12.2192 21.5237 13.3142 20.2795 13.3142C19.0417 13.3142 18.0198 12.2192 18.0198 10.8418C18.0198 9.49927 19.0481 8.40747 20.2795 8.40747C21.5142 8.40747 22.5456 9.48657 22.5456 10.8354Z" fill="black" fill-opacity="0.85"/>
<path d="M12.9018 13.1714C14.3269 13.1714 15.5012 11.9209 15.5012 10.3245C15.5012 8.77881 14.3205 7.54102 12.9018 7.54102C11.4831 7.54102 10.3025 8.7915 10.3025 10.334C10.3025 11.9209 11.4736 13.1714 12.9018 13.1714ZM8.73144 19.1255H17.0659C17.8403 19.1255 18.3005 18.751 18.3005 18.1289C18.3005 16.5039 16.1899 14.2822 12.8987 14.2822C9.61057 14.2822 7.5 16.5039 7.5 18.1289C7.5 18.751 7.9602 19.1255 8.73144 19.1255Z" fill="black" fill-opacity="0.85"/>
</svg>
