<svg width="30" height="30" viewBox="0 0 30 30" fill="none" xmlns="http://www.w3.org/2000/svg">
<rect width="30" height="30" rx="15" fill="#03B2FD"/>
<g clip-path="url(#clip0_4943_93456)">
<path d="M10.5783 16.1631C9.62485 17.0425 9.08241 18.16 9.08241 19.1844C9.08241 19.534 9.16193 19.8581 9.31274 20.1363H5.13734C4.29075 20.1363 4 19.7343 4 19.0514C4 17.4649 5.71599 15.5068 8.22157 15.5068C9.12554 15.5068 9.92623 15.7611 10.5783 16.1631ZM10.254 12.2402C10.254 13.5577 9.33896 14.6002 8.22157 14.6002C7.10702 14.6002 6.19202 13.5577 6.19202 12.2462C6.19202 10.968 7.11843 9.92847 8.22157 9.92847C9.33041 9.92847 10.254 10.9559 10.254 12.2402Z" fill="white"/>
<path d="M25.7034 19.0514C25.7034 19.7343 25.4097 20.1363 24.566 20.1363H20.4027C20.5531 19.8581 20.6324 19.534 20.6324 19.1844C20.6324 18.1582 20.0888 17.0387 19.1328 16.1586C19.7834 15.7591 20.5814 15.5068 21.4818 15.5068C23.9902 15.5068 25.7034 17.4649 25.7034 19.0514ZM23.5171 12.2402C23.5171 13.5577 22.5992 14.6002 21.4818 14.6002C20.3701 14.6002 19.4523 13.5577 19.4523 12.2462C19.4523 10.968 20.3758 9.92847 21.4818 9.92847C22.5907 9.92847 23.5171 10.9559 23.5171 12.2402Z" fill="white"/>
<path d="M14.8593 14.4643C16.1392 14.4643 17.1939 13.2737 17.1939 11.7537C17.1939 10.282 16.1335 9.10352 14.8593 9.10352C13.5852 9.10352 12.5248 10.2941 12.5248 11.7627C12.5248 13.2737 13.5766 14.4643 14.8593 14.4643ZM11.1138 20.1333H18.5992C19.2947 20.1333 19.708 19.7767 19.708 19.1844C19.708 17.6372 17.8124 15.5219 14.8565 15.5219C11.9034 15.5219 10.0078 17.6372 10.0078 19.1844C10.0078 19.7767 10.4211 20.1333 11.1138 20.1333Z" fill="white"/>
</g>
<defs>
<clipPath id="clip0_4943_93456">
<rect width="22" height="13" fill="white" transform="translate(4 8.1123)"/>
</clipPath>
</defs>
</svg>
