<svg width="26" height="26" viewBox="0 0 26 26" fill="none" xmlns="http://www.w3.org/2000/svg">
<path d="M4.54688 17.496C4.54688 19.1358 5.16306 20.3316 6.39022 21.0887C7.00119 21.4544 7.37194 21.8773 7.60693 22.5353L8.13434 23.9191C8.39022 24.6241 8.96464 24.9948 9.74793 24.9948H14.7453C15.5443 24.9948 16.0978 24.6293 16.3537 23.9191L16.8863 22.5353C17.1213 21.8773 17.4974 21.4544 18.1031 21.0887C19.3249 20.3316 19.9464 19.141 19.9464 17.496V8.49871C19.9464 6.8538 19.3249 5.66842 18.1031 4.90602C17.4974 4.54048 17.1213 4.11227 16.8863 3.46476L16.3537 2.07572C16.1135 1.37598 15.5391 1 14.7453 1H9.74793C8.96464 1 8.39022 1.37076 8.13434 2.07572L7.60693 3.46476C7.3615 4.12794 6.9803 4.57181 6.39022 4.90602C5.16829 5.64752 4.54688 6.84334 4.54688 8.49871V17.496ZM6.88108 16.9791V9.0209C6.88108 7.54832 7.71137 6.68147 9.13695 6.68147H15.3615C16.7819 6.68147 17.6226 7.55353 17.6226 9.0209V16.9791C17.6226 18.4413 16.7819 19.3081 15.3615 19.3081H9.13695C7.71137 19.3081 6.88108 18.4465 6.88108 16.9791ZM19.4032 12.3629H19.9412C20.6148 12.3629 21.0795 11.8877 21.0795 11.1619V9.69975C21.0795 8.98435 20.6148 8.50392 19.9412 8.50392H19.4032V12.3629Z" fill="black" fill-opacity="0.85"/>
<path d="M9.14775 10.7024C8.80832 11.0889 8.85532 11.6946 9.26262 12.034L11.2887 13.7364C11.8214 14.1802 12.3853 14.1802 12.8814 13.7364L16.3331 10.7233C16.7352 10.3734 16.7457 9.75725 16.3592 9.37604C16.0094 9.02619 15.4454 9.02096 15.0538 9.3656L12.072 11.9452L10.4637 10.5875C10.0773 10.2638 9.50806 10.3108 9.14775 10.7024Z" fill="black" fill-opacity="0.85"/>
</svg>
