<svg width="26" height="26" viewBox="0 0 26 26" fill="none" xmlns="http://www.w3.org/2000/svg">
<path d="M17.3357 5.70829L17.5706 7.04174H10.7024C8.26856 7.04174 6.76326 8.52364 6.76326 10.9606V19.6706C5.57216 19.6122 4.82227 18.8744 4.57708 17.4968L2.94649 8.24207C2.64971 6.56786 3.39535 5.51846 5.07813 5.21894L14.295 3.59694C15.9895 3.306 17.0362 4.03408 17.3357 5.70829Z" fill="black" fill-opacity="0.85"/>
<path d="M10.7007 22.9657H20.0576C21.772 22.9657 22.6854 22.0582 22.6854 20.3613V10.9607C22.6854 9.26391 21.772 8.35645 20.0576 8.35645H10.7007C8.98948 8.35645 8.07031 9.25807 8.07031 10.9607V20.3613C8.07031 22.064 8.98948 22.9657 10.7007 22.9657ZM10.4748 21.2117C11.1186 19.5393 13.0593 18.3009 15.3808 18.3009C17.7021 18.3009 19.637 19.5393 20.2836 21.2117H10.4748ZM15.3749 17.0684C13.9019 17.0684 12.7595 15.8271 12.7595 14.2067C12.7595 12.6751 13.9127 11.3939 15.3749 11.3939C16.8456 11.3939 17.9989 12.6751 17.9989 14.2067C17.9989 15.8271 16.8565 17.0684 15.3749 17.0684Z" fill="black" fill-opacity="0.85"/>
</svg>
