<svg width="26" height="27" viewBox="0 0 26 27" fill="none" xmlns="http://www.w3.org/2000/svg">
<path fill-rule="evenodd" clip-rule="evenodd" d="M20.3564 11.0868C22.8858 11.0868 25.0062 8.97791 25.0062 6.43537C25.0062 3.88382 22.9096 1.78723 20.3564 1.78723C17.8122 1.78723 15.7066 3.89122 15.7066 6.43537C15.7066 8.99273 17.8122 11.0868 20.3564 11.0868ZM19.7796 5.94914V3.82707C19.7796 3.47924 20.0619 3.21181 20.4097 3.21181C20.7576 3.21181 21.0397 3.47924 21.0397 3.82707V6.5718C21.0397 6.92705 20.765 7.20187 20.4097 7.20187H18.2071C17.8518 7.20187 17.577 6.91963 17.577 6.5718C17.577 6.23138 17.8592 5.94914 18.2071 5.94914H19.7796ZM14.7719 4.48864C14.5683 5.04409 14.4528 5.63944 14.4406 6.25869H5.29237C3.58445 6.25869 2.77006 7.12006 2.77006 8.78099V15.6828C2.77006 17.3437 3.58445 18.2125 5.29237 18.2125H6.52071C7.02809 18.2125 7.25522 18.4168 7.25522 18.947V21.5264L10.1236 18.6874C10.5059 18.301 10.767 18.2125 11.3168 18.2125H16.9453C18.6457 18.2125 19.4676 17.3437 19.4676 15.6828V12.295C19.7563 12.3469 20.0542 12.3701 20.3571 12.3701C20.6566 12.3701 20.9514 12.3471 21.2376 12.2954V15.7389C21.2376 18.4202 19.714 19.9825 16.9957 19.9825H11.4117L8.31908 22.7204C7.69322 23.2701 7.31937 23.5164 6.8165 23.5164C6.08976 23.5164 5.67073 23.0077 5.67073 22.2096V19.9825H5.18504C2.561 19.9825 1 18.4276 1 15.7389V8.7322C1 6.0435 2.5236 4.48864 5.24194 4.48864H14.7719ZM13.0115 15.0575C13.0115 15.3644 12.7693 15.6147 12.4591 15.6147H6.52694C6.22157 15.6147 5.97041 15.3644 5.97041 15.0575C5.97041 14.743 6.21994 14.487 6.52694 14.487H12.4591C12.7693 14.487 13.0115 14.7414 13.0115 15.0575ZM16.1871 12.1681C16.1871 12.4826 15.9418 12.7402 15.6315 12.7402H6.52694C6.22157 12.7402 5.97041 12.4826 5.97041 12.1681C5.97041 11.8686 6.21994 11.6125 6.52694 11.6125H15.6315C15.9418 11.6125 16.1871 11.867 16.1871 12.1681ZM15.5376 9.85837H6.52694C6.22157 9.85837 5.97041 9.6081 5.97041 9.2937C5.97041 8.99249 6.21994 8.7397 6.52694 8.7397H14.9058C15.0748 9.13734 15.2859 9.51317 15.5376 9.85837Z" fill="black"/>
</svg>
