<svg width="32" height="32" viewBox="0 0 32 32" fill="none" xmlns="http://www.w3.org/2000/svg">
<mask id="mask0_9248_177858" style="mask-type:alpha" maskUnits="userSpaceOnUse" x="9" y="13" width="14" height="19">
<path d="M22.3119 21.4082L9.125 13.7852C9.125 13.7852 13.4663 21.3567 13.6765 21.7213C15.7356 25.2733 16.8853 27.4954 16.3405 31.7338L22.3119 21.4082Z" fill="url(#paint0_linear_9248_177858)"/>
</mask>
<g mask="url(#mask0_9248_177858)">
<path d="M22.3119 21.4082L9.125 13.7852C9.125 13.7852 13.4663 21.3567 13.6765 21.7213C15.7356 25.2733 16.8853 27.4954 16.3405 31.7338L22.3119 21.4082Z" fill="black"/>
</g>
<path d="M26.5299 14.0293C27.3449 12.575 26.9288 10.7347 25.4403 9.84671C23.9517 8.95872 13.2915 2.88005 12.3177 2.25802C11.3482 1.636 10.9192 1.11264 10.5889 0.271833C9.19471 2.68271 9.94113 5.78854 12.3563 7.17415C14.8015 8.57693 20.8287 12.0217 22.6519 13.1198C24.4793 14.218 25.0027 15.7752 24.5737 17.4139C24.5737 17.4139 25.7148 15.4878 26.5256 14.0293H26.5299Z" fill="black"/>
<path d="M22.5285 14.8563C20.9756 13.9082 9.54753 7.34482 8.44076 6.72708C7.39404 6.13938 7.01225 5.53451 6.68193 4.698C5.28774 7.10888 6.10709 10.2447 8.44934 11.6046C10.7916 12.9645 16.5314 16.2719 16.5314 16.2719C19.6543 18.0779 21.6577 20.5575 19.9117 25.5594C19.9117 25.5594 22.7645 20.6304 23.6525 19.0517C24.5447 17.4731 24.0857 15.8129 22.5285 14.8606V14.8563Z" fill="black"/>
<defs>
<linearGradient id="paint0_linear_9248_177858" x1="17.1941" y1="25.2175" x2="24.3968" y2="19.1131" gradientUnits="userSpaceOnUse">
<stop offset="0.23"/>
<stop offset="1" stop-opacity="0"/>
</linearGradient>
</defs>
</svg>
