<svg width="138" height="29" viewBox="0 0 138 29" fill="none" xmlns="http://www.w3.org/2000/svg">
<path d="M52.5162 18.9222L49.4972 10.8744H47.025L51.26 21.9357H53.7092L57.9443 10.8744H55.5142L52.5162 18.9222Z" fill="black"/>
<path d="M119.225 10.8796H116.887V21.9352H119.225V10.8796Z" fill="black"/>
<path d="M106.619 10.8796H99.2024V13.0018H106.619V10.8796Z" fill="black"/>
<path d="M136.359 10.8796H128.942V13.0018H136.359V10.8796Z" fill="black"/>
<path d="M39.991 16.9309V16.2668C39.991 13.0472 37.5418 10.6197 34.2914 10.6197C31.0411 10.6197 28.4867 13.156 28.4867 16.3927C28.4867 16.5664 28.4943 16.7439 28.5115 16.929H39.991V16.9309ZM34.2914 12.6789C35.8707 12.6789 37.1078 13.616 37.5724 15.1427H30.9722C31.4541 13.6369 32.7313 12.6789 34.2914 12.6789Z" fill="black"/>
<path d="M37.3597 18.0453C36.7956 19.3277 35.6121 20.1274 34.1896 20.1274C32.7671 20.1274 31.6046 19.3487 31.0578 18.0605L28.9489 18.8258C29.8112 20.8564 31.8073 22.1866 34.1896 22.1866C36.5719 22.1866 38.568 20.8526 39.4801 18.8144L37.3597 18.0434V18.0453Z" fill="black"/>
<path d="M76.5135 16.931V16.2669C76.5135 13.0474 74.0642 10.6198 70.8139 10.6198C67.5635 10.6198 65.0091 13.1561 65.0091 16.3929C65.0091 16.5665 65.0168 16.744 65.034 16.9291H76.5135V16.931ZM70.8139 12.679C72.3932 12.679 73.6302 13.6161 74.0948 15.1428H67.4947C67.9765 13.6371 69.2537 12.679 70.8139 12.679Z" fill="black"/>
<path d="M73.889 18.0453C73.3249 19.3277 72.1414 20.1274 70.7189 20.1274C69.2964 20.1274 68.1339 19.3487 67.5871 18.0605L65.4782 18.8258C66.3405 20.8564 68.3366 22.1866 70.7189 22.1866C73.1012 22.1866 75.0973 20.8526 76.0093 18.8144L73.889 18.0434V18.0453Z" fill="black"/>
<path d="M89.9279 13.7822L92.0636 13.0054C91.9011 12.4501 91.5263 11.6752 90.6698 11.1371C89.3467 10.305 86.8841 10.3851 85.8095 11.7344C85.3105 12.3623 85.0677 13.2363 85.0677 14.4062V21.935H87.406V14.5341C87.406 13.4119 87.9127 12.7955 88.8324 12.7955C89.4805 12.7955 89.8763 13.2802 89.9126 13.6276L89.9298 13.7822H89.9279Z" fill="black"/>
<path d="M106.119 7.39307L108.253 6.61824C108.088 6.06288 107.714 5.29378 106.863 4.75751C105.54 3.92543 103.077 4.00559 102.003 5.35485C101.504 5.98273 101.261 6.8568 101.261 8.02667V21.9335H103.599V8.15453C103.599 7.03237 104.106 6.41404 105.025 6.41404C105.674 6.41404 106.069 6.89878 106.106 7.24803L106.121 7.39307H106.119Z" fill="black"/>
<path d="M135.863 19.0115L135.845 19.1795C135.809 19.5287 135.413 20.0135 134.765 20.0135C133.845 20.0135 133.339 19.3951 133.339 18.273V4.88337H131V18.4008C131 19.5707 131.243 20.4448 131.742 21.0727C132.815 22.4219 135.279 22.5021 136.602 21.67C137.465 21.128 137.838 20.3436 138 19.7883L135.863 19.0115Z" fill="black"/>
<path d="M118.045 8.84738C118.913 8.84738 119.617 8.14503 119.617 7.27864C119.617 6.41225 118.913 5.7099 118.045 5.7099C117.177 5.7099 116.474 6.41225 116.474 7.27864C116.474 8.14503 117.177 8.84738 118.045 8.84738Z" fill="black"/>
<mask id="mask0_1_2" style="mask-type:alpha" maskUnits="userSpaceOnUse" x="2" y="13" width="14" height="18">
<path d="M15.1194 20.5588L2.90634 13.4987C2.90634 13.4987 6.92705 20.5111 7.12173 20.8488C9.02878 24.1385 10.0936 26.1965 9.58898 30.1219L15.1194 20.5588Z" fill="url(#paint0_linear_1_2)"/>
</mask>
<g mask="url(#mask0_1_2)">
<path d="M15.1194 20.5588L2.90634 13.4987C2.90634 13.4987 6.92705 20.5111 7.12173 20.8488C9.02878 24.1385 10.0936 26.1965 9.58898 30.1219L15.1194 20.5588Z" fill="black"/>
</g>
<path d="M19.0089 13.7248C19.7638 12.378 19.3784 10.6735 17.9998 9.85113C16.6211 9.02871 6.74817 3.39893 5.84629 2.82284C4.94838 2.24675 4.55108 1.76203 4.24516 0.983321C2.95392 3.21616 3.64523 6.09264 5.88205 7.37593C8.14667 8.67511 13.7288 11.8655 15.4173 12.8826C17.1098 13.8996 17.5945 15.3419 17.1972 16.8596C17.1972 16.8596 18.2541 15.0757 19.005 13.7248H19.0089Z" fill="black"/>
<path d="M15.3079 14.4913C13.8697 13.6133 3.28556 7.53452 2.26051 6.96241C1.2911 6.4181 0.937496 5.8579 0.631573 5.08316C-0.659662 7.316 0.0991863 10.2203 2.26846 11.4797C4.43773 12.7392 9.75365 15.8024 9.75365 15.8024C12.646 17.475 14.5014 19.7715 12.8844 24.404C12.8844 24.404 15.5265 19.839 16.3489 18.3769C17.1753 16.9148 16.7502 15.3773 15.3079 14.4953V14.4913Z" fill="black"/>
<defs>
<linearGradient id="paint0_linear_1_2" x1="10.3796" y1="24.0868" x2="17.0503" y2="18.4332" gradientUnits="userSpaceOnUse">
<stop offset="0.23"/>
<stop offset="1" stop-opacity="0"/>
</linearGradient>
</defs>
</svg>
