<svg width="22" height="22" viewBox="0 0 22 22" fill="none" xmlns="http://www.w3.org/2000/svg">
<path d="M11 1.375C16.3158 1.375 20.625 5.68425 20.625 11C20.625 15.9203 16.932 19.9787 12.1664 20.5543V13.9416H14.7696L15.3103 11H12.1664V9.9598C12.1664 8.40608 12.7758 7.8078 14.3542 7.80778C14.8444 7.80778 15.2392 7.81952 15.4661 7.84359V5.17773C15.0357 5.05812 13.9838 4.93873 13.374 4.93872C10.1572 4.93872 8.67521 6.45738 8.67521 9.73332V11H6.6897V13.9416H8.67521V20.3421C4.48284 19.3019 1.375 15.5141 1.375 11C1.375 5.68425 5.68425 1.375 11 1.375Z" fill="black"/>
</svg>
