<svg width="22" height="22" viewBox="0 0 22 22" fill="none" xmlns="http://www.w3.org/2000/svg">
<path fill-rule="evenodd" clip-rule="evenodd" d="M10.9904 6.05634C13.7197 6.05084 15.937 8.26036 15.9425 10.9897C15.9473 13.719 13.7385 15.9354 11.0092 15.9409C8.27991 15.9463 6.06343 13.7378 6.05793 11.0085C6.05265 8.27945 8.26134 6.06207 10.9904 6.05634ZM10.9949 7.79031C9.27803 7.79375 7.87908 9.14518 7.79637 10.8402L7.79279 11.0067C7.79623 12.7783 9.2358 14.2112 11.0074 14.2079C12.7795 14.2043 14.2127 12.7647 14.2095 10.9933C14.206 9.22099 12.7664 7.78694 10.9949 7.79031Z" fill="black"/>
<path d="M16.1251 4.69835C16.7631 4.69697 17.2812 5.21339 17.2826 5.85134C17.2839 6.48926 16.7676 7.00654 16.1296 7.00792C15.4917 7.00915 14.9735 6.49284 14.9721 5.85492C14.9717 5.21735 15.4876 4.70005 16.1251 4.69835Z" fill="black"/>
<path fill-rule="evenodd" clip-rule="evenodd" d="M10.9805 1.37453C13.5939 1.36972 13.925 1.38158 14.9489 1.42556C15.9731 1.46955 16.6737 1.63154 17.2862 1.86868C17.9199 2.11269 18.4579 2.44026 18.9933 2.97423C19.5288 3.50837 19.8585 4.04533 20.106 4.67776C20.3459 5.28959 20.5093 5.98696 20.5581 7.01329C20.6069 8.03951 20.6179 8.36717 20.6234 10.9807C20.6289 13.5944 20.618 13.9229 20.5733 14.95C20.5286 15.9734 20.3673 16.6737 20.1302 17.2855C19.8861 17.9194 19.5572 18.4564 19.0237 18.9926C18.4903 19.5288 17.9535 19.8587 17.3211 20.1062C16.7093 20.3454 16.0142 20.5095 14.9874 20.5583C13.9604 20.6071 13.6311 20.6188 11.0181 20.6236C8.40529 20.6285 8.0749 20.6182 7.05068 20.5735C6.02643 20.5288 5.32519 20.3669 4.71336 20.1304C4.07837 19.885 3.54164 19.5573 3.00625 19.0239C2.47082 18.4898 2.14031 17.9528 1.89354 17.3204C1.6537 16.7087 1.49027 16.0092 1.44147 14.9858C1.39198 13.9589 1.38093 13.6303 1.37612 11.0174C1.37131 8.40462 1.38088 8.07431 1.42625 7.04999C1.47164 6.02515 1.63133 5.32515 1.86847 4.71267C2.11319 4.07957 2.44243 3.54284 2.97581 3.00735C3.50992 2.47186 4.04607 2.14054 4.67845 1.89374C5.21324 1.6838 5.81584 1.53268 6.64427 1.46584L7.01308 1.44078C8.03944 1.39128 8.36726 1.37935 10.9805 1.37453ZM10.9841 3.11119C8.41577 3.11669 8.11067 3.12575 7.09634 3.17385C6.15873 3.21855 5.64846 3.37597 5.30955 3.50865C4.86077 3.68394 4.53943 3.89288 4.204 4.23106C3.86872 4.56917 3.66015 4.88915 3.48696 5.3393C3.35637 5.67886 3.19923 6.18877 3.15933 7.12608C3.11464 8.14079 3.10459 8.44519 3.11009 11.0148C3.11559 13.5845 3.12622 13.8895 3.17365 14.9034C3.21764 15.8416 3.37647 16.3506 3.50845 16.6902C3.68369 17.139 3.89195 17.4611 4.22996 17.7958C4.56815 18.1305 4.88959 18.3405 5.33909 18.5137C5.67866 18.6443 6.18817 18.7999 7.12588 18.8404C8.1406 18.8844 8.44578 18.8952 11.0154 18.8897C13.5847 18.8842 13.8899 18.8735 14.9041 18.8261C15.841 18.7814 16.3511 18.6233 16.69 18.4913C17.1388 18.316 17.4594 18.108 17.7956 17.7698C18.1317 17.4316 18.3403 17.111 18.5135 16.6616C18.6441 16.3212 18.7999 15.8114 18.8411 14.873C18.8858 13.8592 18.8952 13.5532 18.8904 10.9843C18.8855 8.41586 18.874 8.11098 18.8259 7.09654C18.7819 6.15818 18.6247 5.64889 18.492 5.31065C18.316 4.86047 18.1078 4.54033 17.7696 4.20421C17.4315 3.86824 17.1107 3.66035 16.6614 3.48716C16.3225 3.35588 15.8119 3.2001 14.8746 3.15953C13.8593 3.11485 13.5531 3.10569 10.9841 3.11119Z" fill="black"/>
</svg>
