<svg width="22" height="22" viewBox="0 0 22 22" fill="none" xmlns="http://www.w3.org/2000/svg">
<path fill-rule="evenodd" clip-rule="evenodd" d="M17.9511 2.0625C19.0483 2.0625 19.9375 2.95235 19.9375 4.04891V17.9511C19.9375 19.0483 19.0477 19.9375 17.9511 19.9375H4.04891C2.95166 19.9375 2.0625 19.0477 2.0625 17.9511V4.04891C2.0625 2.95166 2.95235 2.0625 4.04891 2.0625H17.9511ZM4.80176 17.4552H7.46672V8.84798H4.80176V17.4552ZM14.3229 8.5848C12.508 8.5848 11.7376 9.98913 11.7278 10.0072V8.84798H9.17114V17.4552H11.7278V12.9372C11.7278 11.7266 12.2854 11.0063 13.3516 11.0063C14.3317 11.0065 14.8027 11.6986 14.8027 12.9372V17.4552H17.4552V12.0053C17.4552 9.69951 16.1495 8.58489 14.3229 8.5848ZM6.12126 4.54484C5.2504 4.54497 4.545 5.25586 4.54484 6.13289C4.54484 7.01006 5.25031 7.72082 6.12126 7.72095C6.99163 7.72095 7.69767 7.01014 7.69767 6.13289C7.69752 5.25578 6.99222 4.54484 6.12126 4.54484Z" fill="black"/>
</svg>
