<svg width="22" height="22" viewBox="0 0 22 22" fill="none" xmlns="http://www.w3.org/2000/svg">
<g clip-path="url(#clip0_20387_14923)">
<path fill-rule="evenodd" clip-rule="evenodd" d="M11 3.25C11 3.25 17.8795 3.25012 19.5955 3.71281C20.542 3.96797 21.2869 4.71791 21.5399 5.67057C21.9998 7.39757 22 11.0005 22 11.0005C22 11.0382 21.9974 14.6116 21.5399 16.3295C21.2869 17.2816 20.5421 18.0328 19.5955 18.2873C17.8802 18.75 11 18.7501 11 18.7501C11 18.7501 4.12046 18.75 2.40446 18.2873C1.45792 18.0328 0.713095 17.2823 0.460124 16.3295C0.00264861 14.6123 1.27711e-05 11.0382 0 11.0005C0 11.0005 0.000186205 7.39757 0.460124 5.67057C0.713126 4.71791 1.45802 3.96728 2.40446 3.71281C4.11977 3.25012 11 3.25 11 3.25ZM8.74951 14.2715L14.5002 11.0005L8.74951 7.72949V14.2715Z" fill="black"/>
</g>
<defs>
<clipPath id="clip0_20387_14923">
<rect width="22" height="22" fill="white"/>
</clipPath>
</defs>
</svg>
