<svg width="26" height="25" viewBox="0 0 26 25" fill="none" xmlns="http://www.w3.org/2000/svg">
<path fill-rule="evenodd" clip-rule="evenodd" d="M12.5092 10.7493C15.2988 10.7493 17.5901 13.0167 17.5901 15.7708C17.5901 16.3146 17.4883 16.8303 17.2946 17.3054H7.71449C7.52078 16.8303 7.41903 16.3146 7.41903 15.7708C7.41903 13.0167 9.71025 10.7493 12.5092 10.7493ZM4.71502 16.2229L2.6467 16.2199C2.11212 16.2199 1.70312 15.8296 1.70312 15.3504C1.70312 14.8683 2.10915 14.4809 2.6467 14.4809H4.71502C5.24618 14.4809 5.65859 14.8683 5.66498 15.3504C5.67136 15.8296 5.25257 16.2229 4.71502 16.2229ZM7.66548 11.0283C7.32754 11.3701 6.74446 11.355 6.36865 10.9818L4.90605 9.54829C4.5145 9.16923 4.52088 8.60798 4.86817 8.27542C5.21546 7.93993 5.77343 7.93029 6.15861 8.31564L7.62417 9.75207C8.0034 10.1219 8.00638 10.6894 7.66548 11.0283ZM18.6404 10.9818C18.2646 11.355 17.688 11.3638 17.3436 11.0283C16.9964 10.6957 17.0057 10.1219 17.385 9.75207L18.8505 8.31564C19.2356 7.93029 19.803 7.93365 20.1409 8.27542C20.4818 8.61427 20.4946 9.16923 20.103 9.54829L18.6404 10.9818ZM22.3624 16.2199H20.2941C19.7689 16.2199 19.3506 15.8296 19.3441 15.3504C19.3377 14.8683 19.7659 14.4809 20.2941 14.4809H22.3624C22.903 14.4809 23.3059 14.8683 23.3059 15.3504C23.3059 15.8296 22.903 16.2199 22.3624 16.2199ZM13.3898 8.1247C13.3898 8.6445 12.9897 9.05329 12.5092 9.05958C12.0194 9.06585 11.6193 8.6445 11.6193 8.1247V6.08923C11.6193 5.55729 12.0194 5.16064 12.5092 5.16064C12.9897 5.16064 13.3898 5.55729 13.3898 6.08923V8.1247ZM23.4829 20.4968H1.51716C0.960915 20.4968 0.5 20.0391 0.5 19.5252C0.5 18.9996 0.957937 18.5535 1.51716 18.5535H23.4829C24.0451 18.5535 24.5 18.9908 24.5 19.5252C24.5 20.0479 24.0421 20.4968 23.4829 20.4968Z" fill="black" fill-opacity="0.85"/>
</svg>
