<svg width="26" height="25" viewBox="0 0 26 25" fill="none" xmlns="http://www.w3.org/2000/svg">
<path d="M8.43278 23.3033C9.28602 23.3033 9.81054 22.8177 9.8012 22.0056L9.60837 11.3677C9.60539 10.9553 9.7307 10.7425 10.053 10.5942C11.3578 10.003 11.9409 9.38076 11.8606 7.58584L11.5901 1.8841C11.5654 1.42044 11.2987 1.15173 10.8711 1.15173C10.4561 1.15173 10.2051 1.43569 10.2111 1.90572L10.2795 7.43114C10.2854 7.77826 10.0798 7.98934 9.76851 7.98934C9.44487 7.98934 9.2325 7.79055 9.22953 7.45614L9.13014 1.72305C9.1208 1.2776 8.85749 1 8.43278 1C8.00809 1 7.75114 1.2776 7.7418 1.72305L7.64539 7.45614C7.64242 7.78461 7.42708 7.98934 7.10344 7.98934C6.79212 7.98934 6.58018 7.77826 6.58315 7.43114L6.65747 1.90572C6.66045 1.43569 6.41879 1.15173 5.99749 1.15173C5.56981 1.15173 5.30013 1.4234 5.2755 1.8841L5.00836 7.58584C4.92172 9.38076 5.50781 10.003 6.8155 10.5942C7.13784 10.7425 7.26017 10.9553 7.25721 11.3677L7.07076 22.0056C7.05547 22.8205 7.58549 23.3033 8.43278 23.3033ZM15.9507 14.9615L15.7783 21.9737C15.7532 22.8205 16.293 23.3033 17.134 23.3033C17.9965 23.3033 18.5151 22.8461 18.5151 22.0466V1.74681C18.5151 1.26234 18.191 1 17.8041 1C17.4342 1 17.1857 1.19539 16.8719 1.64552C15.3318 3.79148 14.2433 8.02648 14.2433 11.7416V12.2697C14.2433 12.9575 14.468 13.4212 15.0273 13.7912L15.4806 14.0991C15.8318 14.3381 15.9665 14.5784 15.9507 14.9615Z" fill="black" fill-opacity="0.85"/>
</svg>
