<svg width="23" height="20" viewBox="0 0 23 20" fill="none" xmlns="http://www.w3.org/2000/svg">
<path d="M16.1586 4.37507H11.9614C9.32938 4.37507 7.64999 6.044 7.64999 8.61347V12.8693C7.64999 13.676 7.82598 14.3895 8.15344 14.9846L6.13752 16.7496C5.7029 17.1286 5.42822 17.2885 5.07009 17.2885C4.56246 17.2885 4.25649 16.9373 4.25649 16.374V14.4269H4.05482C2.13207 14.4269 0.765625 13.1301 0.765625 11.0195V5.50507C0.765625 3.39457 2.04862 2.09766 4.17651 2.09766H12.8933C14.6091 2.09766 15.7733 2.94095 16.1586 4.37507Z" fill="black" fill-opacity="0.85"/>
<path d="M11.9627 15.8529H14.334L16.8374 18.0085C17.2755 18.3806 17.5466 18.5475 17.9013 18.5475C18.4089 18.5475 18.7149 18.1963 18.7149 17.6365V15.8529H18.8157C20.7385 15.8529 21.865 14.7368 21.865 12.8696V8.61383C21.865 6.67021 20.6863 5.50195 18.6871 5.50195H11.9627C9.95993 5.50195 8.78125 6.67021 8.78125 8.61383V12.8696C8.78125 14.7402 9.95993 15.8529 11.9627 15.8529Z" fill="black" fill-opacity="0.85"/>
</svg>
