<svg width="26" height="26" viewBox="0 0 26 26" fill="none" xmlns="http://www.w3.org/2000/svg">
<path d="M6.05579 16.6906H7.8641V7.58143H6.05579C3.4296 7.58143 2 8.96754 2 11.4892V12.7857C2 15.3011 3.4296 16.6906 6.05579 16.6906ZM9.25434 16.6999C11.9588 17.0106 15.2736 17.8355 18.0131 19.1831C18.0072 19.0641 18.0042 18.9357 18.0042 18.8165V5.45092C18.0042 5.32503 18.0072 5.21472 18.0101 5.09178C15.3315 6.41936 11.738 7.31322 9.25434 7.58143V16.6999ZM21.4373 21.3522C22.6436 21.3522 23.5161 20.4772 23.5161 19.2831V4.92151C23.5161 3.7211 22.6436 2.84619 21.4373 2.84619C20.2378 2.84619 19.3619 3.7211 19.3619 4.92151V19.2831C19.3619 20.4772 20.2378 21.3522 21.4373 21.3522ZM9.90728 23.1475C11.144 23.1475 12.0766 22.2002 11.7226 20.7207L11.1897 18.4084C10.2576 18.2144 8.99893 18.0956 6.58844 18.0485C6.42982 18.0485 6.19167 18.0358 5.94419 18.0329L7.61995 21.4709C8.13848 22.5307 8.73316 23.1475 9.90728 23.1475Z" fill="black" fill-opacity="0.85"/>
</svg>
