<svg width="26" height="26" viewBox="0 0 26 26" fill="none" xmlns="http://www.w3.org/2000/svg">
<path d="M10.3744 20.5367C13.6173 23.7494 17.7755 23.4724 20.7179 20.5615C22.845 18.4429 23.4116 16.2029 22.7222 13.5327C22.3422 11.6368 21.202 9.47222 20.352 7.87663C19.8647 6.93234 19.2476 5.70926 18.885 5.27971C18.479 4.78412 17.8673 4.71812 17.3699 5.11902C16.8097 5.56684 16.7656 6.19091 17.0897 7.11076L18.2703 10.266C18.3786 10.5516 18.3617 10.717 18.2534 10.8214C18.1377 10.9394 17.9716 10.9626 17.7481 10.7407L10.1677 3.20522C9.67953 2.72737 8.92193 2.72737 8.44381 3.20204C7.9588 3.68354 7.9588 4.432 8.44702 4.91349L14.0224 10.4517C13.7856 10.5624 13.5387 10.7036 13.295 10.8617L6.87114 4.48756C6.3898 4.00287 5.63542 4.00287 5.15041 4.48756C4.66908 4.96906 4.66908 5.71114 5.15041 6.19583L11.4935 12.493C11.3173 12.7081 11.1415 12.9368 10.9791 13.1655L5.14763 7.36942C4.66261 6.88793 3.90549 6.88473 3.42048 7.36624C2.94556 7.84774 2.94877 8.5962 3.42369 9.07769L9.75302 15.3544C9.63462 15.6537 9.55707 15.9531 9.48639 16.2387L5.07932 11.8635C4.60119 11.382 3.8436 11.3788 3.35859 11.8603C2.88047 12.3418 2.88047 13.0903 3.35859 13.575L10.3744 20.5367Z" fill="black" fill-opacity="0.85"/>
</svg>
