<svg width="26" height="27" viewBox="0 0 26 27" fill="none" xmlns="http://www.w3.org/2000/svg">
<path d="M23 13C23 18.5203 18.5211 23 12.9985 23C7.48547 23 3 18.5203 3 13C3 7.48613 7.48547 3 12.9985 3C18.5211 3 23 7.48613 23 13ZM12.0933 7.53138C11.3887 7.53138 10.9094 8.00468 10.9094 8.72552V10.907H8.70549C8.00395 10.907 7.52461 11.393 7.52461 12.0946V13.8892C7.52461 14.5969 8.01047 15.0733 8.71159 15.0733H10.9094V17.271C10.9094 17.9887 11.3887 18.4586 12.0933 18.4586H13.8876C14.6018 18.4586 15.0715 17.9887 15.0715 17.271V15.0733H17.2754C17.9835 15.0733 18.4628 14.5969 18.4628 13.8892V12.0946C18.4628 11.393 17.9835 10.907 17.2754 10.907H15.0715V8.72552C15.0715 8.00468 14.6018 7.53138 13.8876 7.53138H12.0933Z" fill="black" fill-opacity="0.85"/>
</svg>
