<svg width="17" height="18" viewBox="0 0 17 18" fill="none" xmlns="http://www.w3.org/2000/svg">
<g clip-path="url(#clip0_13982_31000)">
<path d="M17 9C17 13.6887 13.1936 17.5 8.49799 17.5C3.81042 17.5 0 13.6887 0 9C0 4.30729 3.81042 0.5 8.49799 0.5C13.1936 0.5 17 4.30729 17 9ZM10.7271 5.86885L7.59266 10.8554L6.1884 9.13282C5.97113 8.86718 5.74982 8.75852 5.4561 8.75852C4.96521 8.75852 4.56284 9.15294 4.56284 9.64797C4.56284 9.88542 4.6393 10.0867 4.82438 10.312L6.71148 12.5698C6.96497 12.8797 7.25468 13.0448 7.60876 13.0448C7.95882 13.0448 8.26864 12.8636 8.4819 12.5537L12.2159 6.84683C12.3567 6.63352 12.4412 6.4162 12.4412 6.21497C12.4412 5.71591 12.0026 5.36174 11.5158 5.36174C11.2019 5.36174 10.9404 5.5348 10.7271 5.86885Z" fill="#673DFF"/>
</g>
<defs>
<clipPath id="clip0_13982_31000">
<rect width="17" height="17" fill="white" transform="translate(0 0.5)"/>
</clipPath>
</defs>
</svg>
