<svg width="26" height="27" viewBox="0 0 26 27" fill="none" xmlns="http://www.w3.org/2000/svg">
<path d="M3 20.2479C3 20.797 3.42272 21.1887 3.95189 21.1887H22.0423C22.5772 21.1887 23 20.797 23 20.2479C23 19.7046 22.5772 19.3069 22.0423 19.3069H3.95189C3.42272 19.3069 3 19.7046 3 20.2479Z" fill="black" fill-opacity="0.85"/>
<path d="M18.2422 16.9386C18.2422 17.5003 18.6011 17.8503 19.1664 17.8503H21.0353C21.5946 17.8503 21.9595 17.5003 21.9595 16.9386V11.4841C21.9595 10.9197 21.5946 10.5639 21.0353 10.5639H19.1664C18.6011 10.5639 18.2422 10.9197 18.2422 11.4841V16.9386Z" fill="black" fill-opacity="0.85"/>
<path d="M13.5078 16.9386C13.5078 17.5002 13.8672 17.8502 14.4293 17.8502H16.3009C16.8662 17.8502 17.231 17.5002 17.231 16.9386V7.88045C17.231 7.31875 16.8662 6.96881 16.3009 6.96881H14.4293C13.8672 6.96881 13.5078 7.31875 13.5078 7.88045V16.9386Z" fill="black" fill-opacity="0.85"/>
<path d="M8.76562 16.9387C8.76562 17.5003 9.12456 17.8503 9.68667 17.8503H11.5587C12.1208 17.8503 12.4829 17.5003 12.4829 16.9387V5.82106C12.4829 5.25662 12.1208 4.90942 11.5587 4.90942H9.68667C9.12456 4.90942 8.76562 5.25662 8.76562 5.82106V16.9387Z" fill="black" fill-opacity="0.85"/>
<path d="M4.03906 16.9387C4.03906 17.5003 4.40388 17.8503 4.96324 17.8503H6.83218C7.39742 17.8503 7.76223 17.5003 7.76223 16.9387V9.70018C7.76223 9.14435 7.39742 8.78854 6.83218 8.78854H4.96324C4.40388 8.78854 4.03906 9.14435 4.03906 9.70018V16.9387Z" fill="black" fill-opacity="0.85"/>
</svg>
