<svg width="26" height="26" viewBox="0 0 26 26" fill="none" xmlns="http://www.w3.org/2000/svg">
<path d="M5.60441 23C6.23115 23 6.7495 22.4957 6.7495 21.8596V16.8457C7.03224 16.7609 7.69196 16.563 8.61558 16.563C11.9425 16.563 14.4164 18.2925 17.748 18.2925C19.1664 18.2925 20.0052 18.0757 20.7544 17.7222C21.4661 17.3877 21.8241 16.7562 21.8241 15.8609V6.74727C21.8241 5.9556 21.2775 5.42312 20.4906 5.42312C19.845 5.42312 19.0344 5.72941 17.682 5.72941C14.4635 5.72941 11.8812 4 8.5496 4C7.18774 4 6.39609 4.19792 5.56201 4.57961C4.85987 4.90476 4.46875 5.39012 4.46875 6.24306V21.8596C4.46875 22.4863 4.9871 23 5.60441 23ZM6.85317 12.0392V9.30134C7.07936 9.08457 7.65426 8.82068 8.625 8.82068C8.89831 8.82068 9.47792 8.85367 9.91146 8.92435V6.42684C11.0283 6.57763 12.0744 6.90749 13.1488 7.22322V9.71602C14.1855 10.0506 15.3636 10.3381 16.3814 10.4559V7.95833C16.7772 8.01017 17.1826 8.03845 17.5925 8.03845C18.3229 8.03845 18.959 7.97247 19.4445 7.84524V10.3333C19.0344 10.4464 18.3701 10.536 17.5925 10.536C17.3145 10.536 16.8998 10.5265 16.3814 10.4559V13.189C16.928 13.2644 17.4135 13.2691 17.7621 13.2691C18.4878 13.2691 19.0015 13.1937 19.4445 13.0712V15.4886C19.2371 15.7054 18.6386 15.9504 17.6585 15.9504C17.2344 15.9504 16.8103 15.9127 16.3814 15.842V13.189C15.2222 13.0288 14.2232 12.7932 13.1488 12.4492V15.0315C12.1262 14.7299 11.0801 14.4377 9.91146 14.3105V11.6622C9.56275 11.6104 9.17634 11.5585 8.625 11.5585C7.65426 11.5585 7.07936 11.8224 6.85317 12.0392ZM9.91146 11.6622C11.0942 11.8271 12.0084 12.1193 13.1488 12.4492V9.71602C12.0744 9.40029 11.099 9.094 9.91146 8.92435V11.6622Z" fill="black" fill-opacity="0.85"/>
</svg>
