<svg width="26" height="26" viewBox="0 0 26 26" fill="none" xmlns="http://www.w3.org/2000/svg">
<path d="M6.47837 17.6392C5.99545 17.6392 5.67188 17.3019 5.67188 16.8297V15.2699C5.67188 14.792 5.99545 14.4605 6.47837 14.4605H8.49721C8.98012 14.4605 9.30369 14.792 9.30369 15.2699V16.8297C9.30369 17.3019 8.98012 17.6392 8.49721 17.6392H6.47837ZM3 11.228V9.21214H22.5721V11.228H3ZM5.78816 20.3683H19.784C21.6116 20.3683 22.5721 19.3872 22.5721 17.5404V8.46821C22.5721 6.62135 21.6116 5.63452 19.784 5.63452H5.78816C3.96877 5.63452 3 6.62135 3 8.46821V17.5404C3 19.3872 3.96877 20.3683 5.78816 20.3683Z" fill="black" fill-opacity="0.85"/>
</svg>
