<svg width="12" height="13" viewBox="0 0 12 13" fill="none" xmlns="http://www.w3.org/2000/svg">
<g opacity="0.5">
<path fill-rule="evenodd" clip-rule="evenodd" d="M3.41904 0.5C1.53076 0.5 0 2.03084 0 3.91922V9.08078C0 10.9692 1.53076 12.5 3.41904 12.5H8.58032C10.4686 12.5 11.9994 10.9692 11.9994 9.08078V8.01986H10.5942V9.08078C10.5942 10.1931 9.69256 11.0948 8.58032 11.0948H3.41904C2.3068 11.0948 1.40515 10.1931 1.40515 9.08078V3.91922C1.40515 2.80692 2.3068 1.90523 3.41904 1.90523H4.47985V0.5H3.41904ZM12 0.5H6.78338V1.9071H9.59806L5.24412 6.26128L6.23903 7.25625L10.593 2.90207V5.7169H12V0.5Z" fill="black"/>
</g>
</svg>
