<svg width="30" height="30" viewBox="0 0 30 30" fill="none" xmlns="http://www.w3.org/2000/svg">
<rect width="30" height="30" rx="15" fill="#38C214"/>
<g clip-path="url(#clip0_4943_93374)">
<path d="M11.7577 12.4293C13.2428 12.4293 14.4752 11.2228 14.4752 9.77656C14.4752 8.3227 13.2389 7.11243 11.7577 7.11243C10.2765 7.11243 9.04406 8.3227 9.04406 9.77656C9.04406 11.219 10.2726 12.4293 11.7577 12.4293ZM17.8419 12.4293C19.327 12.4293 20.5555 11.2266 20.5555 9.77656C20.5555 8.3227 19.3231 7.11243 17.8419 7.11243C16.3608 7.11243 15.1244 8.3227 15.1244 9.77656C15.1244 11.2228 16.3529 12.4293 17.8419 12.4293ZM8.7175 17.7651C10.2065 17.7651 11.4389 16.5587 11.4389 15.1086C11.4389 13.6586 10.2065 12.4521 8.7175 12.4521C7.2324 12.4521 6 13.6586 6 15.1086C6 16.5587 7.22852 17.7651 8.7175 17.7651ZM20.8782 17.7651C22.3672 17.7651 23.5957 16.5587 23.5957 15.1086C23.5957 13.6586 22.3672 12.4521 20.8782 12.4521C19.3931 12.4521 18.1568 13.6586 18.1568 15.1086C18.1568 16.5587 19.3931 17.7651 20.8782 17.7651ZM11.7577 23.101C13.2389 23.101 14.4752 21.8945 14.4752 20.4369C14.4752 18.9868 13.2428 17.7841 11.7577 17.7841C10.2726 17.7841 9.04406 18.983 9.04406 20.4369C9.04406 21.8869 10.2726 23.101 11.7577 23.101ZM17.8419 23.101C19.3231 23.101 20.5555 21.8945 20.5555 20.4369C20.5555 18.983 19.327 17.7841 17.8419 17.7841C16.3529 17.7841 15.1244 18.9868 15.1244 20.4369C15.1244 21.8945 16.3608 23.101 17.8419 23.101Z" fill="white"/>
</g>
<defs>
<clipPath id="clip0_4943_93374">
<rect width="18" height="16" fill="white" transform="translate(6 7.11243)"/>
</clipPath>
</defs>
</svg>
