<svg width="30" height="30" viewBox="0 0 30 30" fill="none" xmlns="http://www.w3.org/2000/svg">
<rect width="30" height="30" rx="15" fill="#FF632F"/>
<g clip-path="url(#clip0_4943_93762)">
<path d="M7 11.5325C7 12.4208 7.9415 12.7021 8.52233 12.1011L11.9734 8.56321C12.565 7.96223 12.2852 7 11.4188 7H7.91527C7.36711 7 7 7.40065 7 7.94898V11.5325ZM9.03161 10.3819L19.2743 20.893L20.5495 19.5993L10.3068 9.0853L9.03161 10.3819ZM22.5891 18.4513C22.5891 17.5575 21.645 17.2817 21.0588 17.8771L17.6077 21.4151C17.0215 22.0216 17.3013 22.9812 18.1677 22.9812H21.6713C22.2194 22.9812 22.5891 22.5776 22.5891 22.0323V18.4513ZM22.5891 11.5325V7.94898C22.5891 7.40065 22.2194 7 21.6713 7H18.1677C17.3013 7 17.0215 7.96223 17.6077 8.56321L21.0588 12.1011C21.645 12.7021 22.5891 12.4208 22.5891 11.5325ZM10.3068 20.893L20.5549 10.3819L19.2797 9.0853L9.03161 19.5938L10.3068 20.893ZM7 18.4513V22.0323C7 22.5776 7.36711 22.9812 7.91527 22.9812H11.4188C12.2852 22.9812 12.565 22.0216 11.9734 21.4151L8.52233 17.8771C7.9415 17.2817 7 17.5575 7 18.4513Z" fill="white"/>
</g>
<defs>
<clipPath id="clip0_4943_93762">
<rect width="16" height="16" fill="white" transform="translate(7 7)"/>
</clipPath>
</defs>
</svg>
