<svg width="36" height="36" viewBox="0 0 36 36" fill="none" xmlns="http://www.w3.org/2000/svg">
<path d="M10.5696 29C9.12163 29 7.76039 28.7118 6.4859 28.1354C5.2114 27.566 4.08705 26.7743 3.11283 25.7604C2.13861 24.7535 1.37458 23.5868 0.820746 22.2604C0.273582 20.934 0 19.5139 0 18C0 16.4931 0.273582 15.0764 0.820746 13.75C1.37458 12.4236 2.13527 11.2535 3.10282 10.2396C4.07704 9.22569 5.2014 8.43403 6.47589 7.86458C7.75705 7.28819 9.12163 7 10.5696 7C11.2702 7 11.9509 7.06944 12.6115 7.20833C13.2721 7.34722 13.906 7.54861 14.5132 7.8125C14.2463 8.20833 14.0461 8.625 13.9126 9.0625C13.7792 9.49306 13.7091 9.94444 13.7025 10.4167C13.222 10.2014 12.7182 10.0347 12.1911 9.91667C11.6706 9.79861 11.1301 9.73958 10.5696 9.73958C9.46861 9.73958 8.43767 9.95486 7.4768 10.3854C6.5226 10.809 5.68183 11.3993 4.9545 12.1563C4.22718 12.9132 3.65999 13.7917 3.25296 14.7917C2.84592 15.7847 2.6424 16.8542 2.6424 18C2.6424 19.1458 2.84592 20.2188 3.25296 21.2188C3.65999 22.2188 4.22718 23.0972 4.9545 23.8542C5.68183 24.6042 6.52593 25.191 7.48681 25.6146C8.44768 26.0451 9.47528 26.2604 10.5696 26.2604C11.6706 26.2604 12.7015 26.0451 13.6624 25.6146C14.6233 25.191 15.4674 24.6042 16.1947 23.8542C16.9221 23.0972 17.4892 22.2188 17.8963 21.2188C18.31 20.2188 18.5168 19.1458 18.5168 18C18.5168 17.6111 18.4868 17.2292 18.4268 16.8542C18.3734 16.4792 18.2966 16.1146 18.1965 15.7604C18.6236 15.8229 19.0573 15.8194 19.4977 15.75C19.9448 15.6806 20.3819 15.5312 20.8089 15.3021C20.9157 15.7326 20.9991 16.1736 21.0591 16.625C21.1192 17.0764 21.1492 17.5347 21.1492 18C21.1492 19.5139 20.8723 20.934 20.3185 22.2604C19.7646 23.5868 19.0006 24.7535 18.0264 25.7604C17.0588 26.7743 15.9378 27.566 14.6633 28.1354C13.3888 28.7118 12.0243 29 10.5696 29ZM5.8253 19.5938C5.55171 19.5938 5.3215 19.4965 5.13467 19.3021C4.94783 19.1076 4.85441 18.8681 4.85441 18.5833C4.85441 18.2986 4.94783 18.059 5.13467 17.8646C5.3215 17.6701 5.55171 17.5729 5.8253 17.5729H9.59873V12.1042C9.59873 11.8264 9.69214 11.5903 9.87898 11.3958C10.0658 11.2014 10.296 11.1042 10.5696 11.1042C10.8432 11.1042 11.0734 11.2014 11.2602 11.3958C11.4471 11.5903 11.5405 11.8264 11.5405 12.1042V18.5833C11.5405 18.8681 11.4471 19.1076 11.2602 19.3021C11.0734 19.4965 10.8432 19.5938 10.5696 19.5938H5.8253ZM18.5669 14.3125C17.9396 14.3125 17.3658 14.1493 16.8453 13.8229C16.3248 13.4965 15.9078 13.0625 15.5942 12.5208C15.2872 11.9792 15.1338 11.3854 15.1338 10.7396C15.1338 10.0868 15.2872 9.48958 15.5942 8.94792C15.9078 8.40625 16.3248 7.97569 16.8453 7.65625C17.3658 7.32986 17.9396 7.16667 18.5669 7.16667C19.1874 7.16667 19.758 7.32986 20.2784 7.65625C20.7989 7.97569 21.216 8.40625 21.5296 8.94792C21.8432 9.48958 22 10.0868 22 10.7396C22 11.3854 21.8432 11.9792 21.5296 12.5208C21.216 13.0625 20.7989 13.4965 20.2784 13.8229C19.758 14.1493 19.1874 14.3125 18.5669 14.3125Z" fill="black"/>
</svg>
