<svg width="36" height="36" viewBox="0 0 36 36" fill="none" xmlns="http://www.w3.org/2000/svg">
<path d="M6.10477 32C5.59615 32 5.1914 31.8504 4.89053 31.5512C4.59682 31.2596 4.45355 30.853 4.46071 30.3313L4.68637 17.0851C4.68637 16.8012 4.64697 16.5864 4.56817 16.4406C4.49653 16.2948 4.364 16.1759 4.17058 16.0838C3.64764 15.8307 3.2214 15.5506 2.89187 15.2437C2.56235 14.9368 2.32236 14.5456 2.17193 14.0699C2.02865 13.5865 1.97493 12.9574 2.01075 12.1825L2.33311 5.16235C2.34744 4.86313 2.42982 4.62913 2.58026 4.46034C2.73786 4.28387 2.94918 4.19564 3.21424 4.19564C3.47213 4.19564 3.66913 4.28387 3.80524 4.46034C3.94851 4.6368 4.02015 4.87848 4.02015 5.18537L3.92344 11.9753C3.91628 12.451 4.11686 12.6889 4.52518 12.6889C4.71144 12.6889 4.85829 12.6275 4.96575 12.5047C5.08037 12.382 5.14126 12.217 5.14842 12.0099L5.25588 4.9552C5.26304 4.66365 5.34184 4.43348 5.49228 4.26469C5.64271 4.08823 5.84688 4 6.10477 4C6.36266 4 6.56682 4.08823 6.71726 4.26469C6.8677 4.43348 6.9465 4.66365 6.95366 4.9552L7.07186 12.0099C7.07186 12.2247 7.12559 12.3935 7.23304 12.5162C7.34766 12.6313 7.4981 12.6889 7.68435 12.6889C7.86344 12.6889 8.00672 12.6275 8.11417 12.5047C8.22163 12.382 8.27535 12.2055 8.27535 11.9753L8.18939 5.18537C8.18939 4.87848 8.26103 4.6368 8.4043 4.46034C8.54757 4.28387 8.74457 4.19564 8.9953 4.19564C9.5469 4.19564 9.84061 4.51788 9.87643 5.16235L10.188 12.1825C10.2239 12.9574 10.1666 13.5865 10.0161 14.0699C9.87285 14.5456 9.63645 14.9368 9.30692 15.2437C8.97739 15.5506 8.55474 15.8307 8.03895 16.0838C7.84553 16.1759 7.70942 16.2948 7.63062 16.4406C7.55182 16.5864 7.51601 16.8012 7.52317 17.0851L7.74883 30.3313C7.74883 30.853 7.60197 31.2596 7.30826 31.5512C7.01455 31.8504 6.61339 32 6.10477 32ZM14.8946 21.5619C14.9017 21.3087 14.8623 21.1015 14.7764 20.9404C14.6904 20.7793 14.5471 20.622 14.3465 20.4686L13.8845 20.1348C13.5335 19.8816 13.2863 19.6054 13.143 19.3062C12.9998 19.007 12.9281 18.6349 12.9281 18.1899V17.4879C12.9281 16.3447 13.0034 15.1708 13.1538 13.9663C13.3114 12.7617 13.5299 11.5879 13.8093 10.4447C14.0958 9.29388 14.4253 8.2351 14.7979 7.26839C15.1775 6.29401 15.593 5.47308 16.0443 4.80559C16.2306 4.52939 16.4061 4.32607 16.5709 4.19564C16.7356 4.06521 16.9255 4 17.1404 4C17.3839 4 17.5881 4.0844 17.7529 4.25319C17.9176 4.42198 18 4.65598 18 4.9552L18 30.3773C18 30.8837 17.8531 31.2788 17.5594 31.5627C17.2657 31.8542 16.861 32 16.3452 32C15.8366 32 15.4318 31.8504 15.131 31.5512C14.8373 31.2596 14.694 30.8453 14.7011 30.3083L14.8946 21.5619Z" fill="black"/>
</svg>
